<?xml version="1.0" encoding="utf-8"?>
<svg viewBox="0 0 750 475" xmlns="http://www.w3.org/2000/svg">
  <path fill="#FFFFFF" stroke="#000000" fill-opacity="0.000" stroke-opacity="1.000" fill-rule="nonzero" stroke-width="6.6499996" stroke-linejoin="round" stroke-linecap="round" d="M 118.59 231.22 C 150.717 191.047 208.13 171.107 290.83 171.4 M 401.19 199.11 C 401.19 167.437 397.073 141.04 388.84 119.92 M 451.11 168.98 C 401.19 151.6 456.77 56.57 364.14 9.06 M 466.62 171.53 C 549.32 171.243 606.733 191.187 638.86 231.36 M 333.78 73.96 C 320.747 89.793 312.34 139.43 308.56 222.87"/>
  <path fill="#FFFFFF" stroke="#000000" fill-opacity="0.000" stroke-opacity="1.000" fill-rule="nonzero" stroke-width="6.6499996" stroke-linejoin="round" stroke-linecap="round" d="M345.61,175.36Q345.61,80.33,364.14,32.81"/>
  <g transform="matrix(1.778991, 0, 0, 1.778991, 375.203796, 358.278748)" id="path3" style="">
    <path style="stroke: none; stroke-width: 1; stroke-dasharray: none; stroke-linecap: butt; stroke-dashoffset: 0; stroke-linejoin: miter; stroke-miterlimit: 4; fill: rgb(14,14,14); fill-rule: evenodd; opacity: 1;" vector-effect="non-scaling-stroke" transform=" translate(-198.17, -96.17)" d="M 332.3 42.265 C 333.565 42.775 332.692 43.294 330.966 43.057 C 329.837 42.903 328.415 43.019 327.266 43.361 C 323.101 44.601 317.662 46.001 315.4 46.416 C 314.08 46.659 311.718 47.207 310.15 47.635 C 308.583 48.063 307.007 48.301 306.647 48.163 C 306.288 48.025 305.41 48.181 304.697 48.51 C 303.984 48.84 301.69 49.235 299.6 49.389 C 297.51 49.543 294.81 49.944 293.6 50.28 C 292.39 50.615 290.903 50.98 290.295 51.091 C 289.687 51.202 289.092 51.451 288.971 51.646 C 288.851 51.841 288.437 52 288.052 52 C 287.666 52 286.637 52.345 285.766 52.766 C 284.894 53.187 283.015 53.741 281.59 53.997 C 280.166 54.253 278.447 54.628 277.772 54.831 C 277.096 55.034 275.971 55.2 275.272 55.2 C 274.572 55.2 274 55.357 274 55.549 C 274 55.741 273.145 56.015 272.1 56.158 C 271.055 56.301 268.4 56.662 266.2 56.961 C 264 57.26 262.624 57.526 263.143 57.552 C 263.829 57.587 264.02 57.772 263.843 58.233 C 263.709 58.581 263.6 58.941 263.6 59.033 C 263.6 59.125 263.281 59.2 262.891 59.2 C 262.478 59.2 261.853 59.827 261.395 60.7 C 260.962 61.525 260.516 62.29 260.403 62.4 C 260.291 62.51 259.967 63.05 259.684 63.6 C 258.75 65.413 256.849 67.304 256.207 67.058 C 255.333 66.723 255.447 65.99 256.8 63.263 C 257.46 61.933 258 60.662 258 60.438 C 258 60.214 258.374 59.683 258.83 59.258 C 259.785 58.369 259.285 57.788 257.877 58.151 C 257.204 58.324 256.779 59.054 256.05 61.288 C 254.798 65.124 252.8 67.243 252.8 64.735 C 252.8 63.62 254.095 59.441 254.494 59.267 C 255.006 59.043 254.835 58.4 254.264 58.4 C 253.613 58.4 252.8 60.076 252.8 61.419 C 252.8 61.958 252.62 62.4 252.4 62.4 C 252.18 62.4 252 62.687 252 63.038 C 252 63.389 251.631 64.195 251.18 64.828 C 250.517 65.759 250.446 66.138 250.808 66.815 C 251.272 67.683 251.176 67.902 249.5 69.77 C 248.716 70.644 248.6 71.2 249.2 71.2 C 249.838 71.2 249.665 71.964 248.822 72.868 C 247.99 73.762 246.8 73.628 246.8 72.641 C 246.8 72.32 247.048 71.81 247.35 71.507 C 247.653 71.205 247.9 70.486 247.9 69.911 C 247.9 69.335 248.295 68.31 248.777 67.632 C 249.26 66.954 249.462 66.4 249.227 66.4 C 248.561 66.4 248.724 64.979 249.557 63.523 C 250.613 61.679 251.135 58.024 250.236 58.77 C 249.886 59.06 249.6 59.546 249.6 59.849 C 249.6 60.152 249.42 60.4 249.2 60.4 C 248.98 60.4 248.8 61.27 248.8 62.334 C 248.8 63.978 248.62 64.428 247.6 65.337 C 246.259 66.532 246.117 67.006 247 67.345 C 247.871 67.679 247.738 68.459 246.6 69.687 C 246.014 70.319 245.6 71.242 245.6 71.918 C 245.6 73.047 244.025 74.31 243.231 73.819 C 242.924 73.629 241.98 74.409 240.772 75.851 C 240.427 76.263 238.942 77.653 237.472 78.941 C 234.832 81.254 233.999 82.457 235.651 81.573 C 236.286 81.233 236.573 81.233 236.783 81.572 C 237.119 82.117 238.4 81.708 238.4 81.056 C 238.4 80.804 239.605 79.834 241.078 78.899 C 243.601 77.299 244.8 76.841 244.8 77.478 C 244.8 77.891 242.707 80 242.297 80 C 241.804 80 240.8 81.054 240.8 81.571 C 240.8 82.275 241.557 82.058 242.093 81.2 C 242.368 80.76 242.98 80.4 243.454 80.4 C 243.928 80.4 244.74 79.953 245.258 79.407 C 246.204 78.409 248 78.03 248 78.827 C 248 79.075 248.343 79.145 248.819 78.994 C 249.27 78.851 249.899 78.95 250.217 79.214 C 250.535 79.478 251.191 79.591 251.674 79.465 C 252.157 79.338 253.159 79.523 253.9 79.874 C 254.909 80.353 255.361 80.399 255.703 80.057 C 256.459 79.301 257.994 79.515 258.33 80.423 L 258.635 81.246 L 259.379 80.423 C 259.789 79.97 260.448 79.6 260.843 79.6 C 261.239 79.6 261.976 79.443 262.481 79.251 C 265.397 78.144 266.365 77.971 267.094 78.427 C 267.7 78.805 268.114 78.699 269.384 77.836 C 270.409 77.141 271.38 76.814 272.247 76.872 C 273.034 76.925 273.865 76.685 274.322 76.271 C 275.154 75.518 276.4 75.741 276.4 76.643 C 276.4 76.949 276.58 77.2 276.8 77.2 C 277.02 77.2 277.2 77.034 277.2 76.831 C 277.2 76.628 277.829 76.255 278.597 76.001 C 279.365 75.747 280.15 75.262 280.34 74.921 C 280.531 74.581 281.134 74.253 281.681 74.193 C 282.229 74.133 283.019 73.904 283.438 73.685 C 283.857 73.466 284.65 73.088 285.2 72.846 C 285.75 72.604 286.47 72.251 286.8 72.061 C 287.13 71.872 288.12 71.383 289 70.975 C 289.88 70.567 291.1 69.895 291.711 69.481 C 292.323 69.068 293.493 68.545 294.311 68.319 C 295.13 68.093 296.52 67.594 297.4 67.209 C 298.28 66.824 299.81 66.18 300.8 65.776 C 301.79 65.373 303.078 64.719 303.662 64.322 C 304.246 63.925 305.088 63.6 305.534 63.6 C 306.065 63.6 306.388 63.295 306.472 62.715 C 306.577 61.992 306.876 61.821 308.106 61.779 C 308.935 61.751 310.015 61.54 310.506 61.31 C 310.998 61.08 312.21 60.652 313.2 60.361 C 315.475 59.69 321.229 56.822 320.324 56.809 C 319.229 56.794 319.117 56.108 320.067 55.224 C 321.215 54.154 321.531 54.185 321.836 55.4 C 322.232 56.98 324.722 56.475 326.563 54.441 C 327.445 53.466 329.12 53.326 329.455 54.2 C 329.836 55.191 333.535 53.838 335.531 51.979 C 335.99 51.55 336.895 51.2 337.54 51.2 C 338.252 51.2 338.812 50.946 338.962 50.554 C 339.131 50.114 339.531 49.97 340.219 50.102 C 341.182 50.286 341.197 50.26 340.552 49.547 C 339.653 48.554 338.317 48.6 337.663 49.647 C 337.237 50.33 336.869 50.451 335.767 50.272 C 335.015 50.15 334.4 50.195 334.4 50.372 C 334.4 50.786 331.348 52.815 331.099 52.566 C 330.611 52.078 332.25 49.625 333.073 49.613 C 333.587 49.605 334.05 49.271 334.2 48.8 C 334.34 48.36 334.802 48 335.227 48 C 335.652 48 336 47.82 336 47.6 C 336 47.38 336.341 47.2 336.757 47.2 C 337.174 47.2 337.618 46.93 337.745 46.6 C 337.871 46.27 338.251 46 338.587 46 C 339.539 46 339.305 45.452 338.117 44.9 C 336.626 44.208 336 44.274 336 45.126 C 336 45.549 335.458 46.114 334.7 46.48 C 333.985 46.826 332.355 48.029 331.077 49.154 C 327.708 52.121 325.646 51.874 328.655 48.865 C 329.455 48.065 330.543 46.724 331.072 45.886 C 331.601 45.048 332.341 44.249 332.717 44.11 C 334.111 43.596 333.705 41.973 332.2 42.044 C 331.98 42.055 332.025 42.154 332.3 42.265 M 340.4 46.4 C 340.03 46.639 339.985 46.79 340.282 46.794 C 340.547 46.797 341.19 47.226 341.71 47.747 C 342.493 48.529 342.773 48.609 343.322 48.207 C 344.127 47.619 343.799 47.2 342.533 47.2 C 341.97 47.2 341.6 46.962 341.6 46.6 C 341.6 45.909 341.251 45.85 340.4 46.4 M 345.387 47.259 C 345.194 48.139 345.275 48.61 345.655 48.824 C 345.955 48.992 346.585 49.461 347.055 49.865 C 347.525 50.269 348.57 51.123 349.376 51.761 C 350.183 52.4 351.108 53.436 351.433 54.063 C 352.042 55.241 352.305 55.211 354.364 53.724 C 354.454 53.658 354.176 53.289 353.746 52.903 C 353.316 52.516 353.03 51.886 353.111 51.501 C 353.216 51.003 353.078 50.872 352.629 51.044 C 352.226 51.199 352 51.066 352 50.675 C 352 50.332 351.513 49.957 350.894 49.821 C 350.285 49.687 349.215 49.043 348.515 48.389 C 347.816 47.735 347.054 47.2 346.822 47.2 C 346.59 47.2 346.4 46.93 346.4 46.6 C 346.4 45.504 345.668 45.98 345.387 47.259 M 328.8 46.925 C 328.8 47.213 328.44 47.836 328 48.308 C 327.56 48.78 327.199 49.309 327.197 49.483 C 327.193 50.086 324.913 51.117 324.352 50.77 C 323.918 50.502 323.908 50.332 324.303 49.937 C 324.577 49.663 324.8 49.062 324.8 48.6 C 324.8 47.373 325.556 46.811 326.858 47.072 C 327.573 47.215 328 47.132 328 46.85 C 328 46.602 328.18 46.4 328.4 46.4 C 328.62 46.4 328.8 46.636 328.8 46.925 M 321.588 50.524 C 321.581 50.786 321.086 51.407 320.488 51.906 C 319.89 52.404 318.967 53.169 318.439 53.606 C 316.541 55.174 315.675 54.246 317.313 52.399 C 319.163 50.313 321.62 49.234 321.588 50.524 M 343.534 51.083 C 343.115 51.591 343.107 51.766 343.5 51.898 C 343.775 51.991 344 52.358 344 52.713 C 344 53.166 344.126 53.234 344.421 52.939 C 344.883 52.477 346.685 52.69 347.03 53.248 C 347.149 53.441 347.462 53.599 347.724 53.598 C 348.255 53.596 346.235 51.667 344.917 50.918 C 344.22 50.522 343.973 50.551 343.534 51.083 M 41.515 54.819 C 40.689 55.725 41.335 56.322 42.203 55.454 C 42.832 54.825 43.009 53.977 42.5 54.033 C 42.335 54.052 41.892 54.405 41.515 54.819 M 355.398 55.19 C 355.542 55.845 355.516 56.61 355.34 56.89 C 355.165 57.171 355.016 57.67 355.011 58 C 354.995 58.856 353.061 58.64 351.634 57.624 C 350.482 56.804 349.2 56.528 349.2 57.101 C 349.2 57.395 350.447 58.086 354.733 60.165 C 357.392 61.456 358.468 61.091 356.4 59.6 C 355.308 58.813 355.393 58 356.567 58 C 357.099 58 357.84 57.883 358.213 57.739 C 358.767 57.527 358.841 57.641 358.613 58.36 C 358.405 59.013 358.601 59.51 359.366 60.275 C 359.935 60.844 360.4 61.105 360.4 60.855 C 360.4 60.049 361.361 60.379 362.963 61.734 C 364.25 62.823 364.518 63.299 364.481 64.428 C 364.449 65.405 364.69 65.995 365.317 66.476 C 366.018 67.015 366.211 67.602 366.26 69.354 C 366.339 72.126 367.04 74.286 368.032 74.817 C 368.85 75.255 368.992 75.879 368.462 76.714 C 368.089 77.301 366.8 76.947 366.8 76.257 C 366.8 75.828 364.303 73.6 363.821 73.6 C 363.429 73.6 363.586 75.544 364 75.8 C 364.22 75.936 364.4 76.397 364.4 76.824 C 364.4 77.291 364.678 77.605 365.1 77.613 C 366.034 77.631 367.287 78.747 367.892 80.1 C 368.441 81.329 369.029 81.455 370.176 80.587 C 371.402 79.661 371.678 79.88 371.534 81.664 C 371.335 84.135 372.155 83.988 373.446 81.32 C 374.334 79.486 374.603 78.29 374.729 75.608 C 374.86 72.85 375.038 72.088 375.683 71.528 C 376.558 70.769 376.741 71.105 373.691 67.867 C 373.311 67.463 372.415 66.887 371.7 66.587 C 370.985 66.287 370.4 65.852 370.4 65.62 C 370.4 65.389 369.809 65.2 369.086 65.2 C 367.539 65.2 366.4 63.678 366.4 61.61 C 366.4 60.458 366.343 60.4 365.771 60.971 C 364.464 62.279 363.115 61.622 363.04 59.64 C 363.007 58.785 362.832 58.624 362.056 58.733 C 361.457 58.817 361.21 58.707 361.38 58.433 C 361.528 58.193 361.369 58 361.024 58 C 360.282 58 360.183 59.056 360.9 59.312 C 361.175 59.41 361.273 59.627 361.117 59.795 C 360.583 60.369 359.6 59.624 359.6 58.645 C 359.6 57.196 359.198 56.402 358.457 56.387 C 357.822 56.375 355.936 55.2 356.552 55.2 C 356.72 55.2 356.587 54.93 356.257 54.6 C 355.356 53.699 355.108 53.87 355.398 55.19 M 33.2 55.085 C 33.53 55.207 34.004 55.468 34.253 55.664 C 34.542 55.891 34.792 55.799 34.941 55.41 C 35.122 54.938 34.884 54.807 33.887 54.832 C 33.179 54.849 32.87 54.963 33.2 55.085 M 344.897 55.7 C 344.988 55.975 345.631 56.256 346.328 56.325 C 347.339 56.425 347.546 56.325 347.354 55.825 C 347.061 55.061 344.647 54.938 344.897 55.7 M 31.6 58.367 C 31.6 58.788 31.465 59.209 31.3 59.301 C 31.135 59.393 31.24 59.408 31.533 59.334 C 31.826 59.26 32.501 59.2 33.033 59.2 C 33.733 59.2 34 58.979 34 58.4 C 34 57.778 33.733 57.6 32.8 57.6 C 31.884 57.6 31.6 57.781 31.6 58.367 M 66 59.158 C 66 60.095 66.442 60.414 70.2 62.19 C 73.301 63.657 74.4 64.37 74.4 64.915 C 74.4 65.427 74.185 65.593 73.7 65.456 C 69.202 64.186 68 63.776 68 63.511 C 68 63.34 67.651 63.2 67.224 63.2 C 66.797 63.2 66.336 63.02 66.2 62.8 C 65.28 61.311 63.401 62.94 64.294 64.452 C 65.132 65.87 64.768 66.25 63.198 65.599 C 62.158 65.168 60.842 63.705 61.268 63.453 C 61.34 63.41 62.03 63.083 62.8 62.728 C 64.029 62.161 64.102 62.05 63.4 61.821 C 62.96 61.678 61.934 61.209 61.121 60.78 C 59.183 59.758 58.419 59.786 59.547 60.836 C 60.461 61.688 60.563 62.813 59.751 63.083 C 59.504 63.165 58.514 62.513 57.551 61.634 C 54.971 59.278 54.871 59.2 54.417 59.2 C 54.188 59.2 54 59.38 54 59.6 C 54 59.82 54.135 60.001 54.3 60.003 C 54.939 60.009 56.49 62.814 56.286 63.594 C 56.17 64.037 56.238 64.5 56.438 64.623 C 56.994 64.967 56.867 66.4 56.28 66.4 C 55.538 66.4 54.8 65.562 54.8 64.72 C 54.8 64.324 54.623 64 54.408 64 C 54.192 64 53.9 63.542 53.76 62.981 C 53.515 62.008 53.47 61.993 52.743 62.652 C 52.159 63.18 51.871 63.231 51.511 62.871 C 51.252 62.612 50.601 62.4 50.064 62.4 C 49.527 62.4 48.847 62.085 48.552 61.7 C 48.137 61.159 47.939 61.115 47.679 61.507 C 47.255 62.149 44.94 62.829 44.177 62.536 C 43.475 62.266 43.432 61.528 44.08 60.88 C 44.435 60.525 44.439 60.4 44.096 60.4 C 43.84 60.4 43.275 60.018 42.84 59.551 C 42.072 58.727 41.369 58.7 39.489 59.421 C 39.167 59.545 38.601 59.344 38.232 58.975 C 37.603 58.346 37.575 58.364 37.784 59.252 C 38.086 60.529 37.785 60.852 35.075 62.161 C 33.054 63.136 31.277 63.341 32.754 62.428 C 33.098 62.216 33.139 62.01 32.87 61.843 C 32.642 61.702 32.342 61.77 32.204 61.993 C 32.066 62.217 31.533 62.4 31.019 62.4 C 29.929 62.4 29.6 63.063 29.6 65.256 C 29.6 66.355 29.457 66.759 29.139 66.562 C 28.807 66.357 28.741 66.745 28.903 67.953 C 29.101 69.426 29.007 69.708 28.128 70.284 C 27.328 70.808 27.173 71.166 27.354 72.07 C 27.52 72.901 27.424 73.2 26.991 73.2 C 26.508 73.2 26.42 73.866 26.501 76.916 C 26.609 80.98 25.956 82.8 24.391 82.8 C 23.556 82.8 23.316 82.208 24.01 81.863 C 24.236 81.752 24.191 81.711 23.91 81.773 C 23.612 81.838 23.425 82.409 23.459 83.143 C 23.498 83.981 23.332 84.4 22.959 84.4 C 22.652 84.4 22.4 84.67 22.4 85 C 22.4 85.33 22.22 85.6 22 85.6 C 21.78 85.6 21.6 86.05 21.6 86.6 C 21.6 87.188 21.83 87.6 22.157 87.6 C 22.464 87.6 22.824 87.885 22.957 88.233 C 23.283 89.082 23.291 89.051 22.535 89.808 C 21.997 90.346 21.972 90.535 22.403 90.802 C 22.841 91.073 22.825 91.302 22.315 92.08 C 21.744 92.952 21.755 93.105 22.456 93.97 C 22.904 94.524 23.121 95.219 22.982 95.658 C 22.835 96.121 22.971 96.491 23.341 96.633 C 24.21 96.966 25.6 96.094 25.6 95.214 C 25.6 93.603 27.135 92.792 28.189 93.846 C 28.772 94.43 28.901 94.432 29.518 93.874 C 29.894 93.534 31.011 93.193 32.001 93.116 C 33.776 92.977 33.786 92.969 32.7 92.498 C 31.505 91.979 31.203 90.638 32.196 90.257 C 32.656 90.081 32.704 89.799 32.407 89.018 C 31.967 87.862 32.204 86.961 33.031 86.643 C 33.859 86.326 33.728 85.6 32.843 85.6 C 32.365 85.6 31.992 85.977 31.829 86.627 C 31.486 87.995 30.353 87.758 29.945 86.232 C 29.728 85.422 29.797 84.932 30.168 84.632 C 30.463 84.394 30.819 83.705 30.96 83.1 C 31.221 81.976 32.194 81.599 32.507 82.5 C 32.654 82.923 36.4 79.527 36.4 78.971 C 36.4 78.444 35.42 78.971 34.118 80.2 C 31.803 82.383 29.521 81.613 31.635 79.363 C 32.425 78.522 32.495 78.245 32.086 77.588 C 31.492 76.638 31.445 74.8 32.015 74.8 C 32.243 74.8 32.378 74.336 32.315 73.768 C 32.2 72.74 33.45 71.74 35.8 70.979 C 36.57 70.73 36.565 70.707 35.691 70.37 C 34.419 69.879 34.1 68.809 35.024 68.133 C 35.438 67.83 36.023 67.677 36.325 67.792 C 37.152 68.11 37.713 67.618 37.213 67.015 C 36.567 66.237 37.106 65.336 38.659 64.599 C 41.233 63.377 42.322 65.211 39.924 66.73 L 38.647 67.538 L 39.972 67.881 L 41.297 68.224 L 39.668 69.012 C 38.335 69.657 38.078 69.958 38.255 70.671 C 38.41 71.293 38.161 71.808 37.383 72.471 C 36.784 72.982 36.06 73.625 35.775 73.9 C 35.49 74.175 35.071 74.4 34.843 74.4 C 34.464 74.4 33.6 75.634 33.6 76.174 C 33.6 77.197 36.562 74.955 38.4 72.541 C 38.73 72.108 39.99 71.249 41.2 70.632 C 42.41 70.015 43.722 69.227 44.114 68.88 C 44.711 68.354 45.046 68.328 46.143 68.725 C 48.055 69.416 48.8 69.325 48.8 68.4 C 48.8 67.96 49.016 67.6 49.28 67.6 C 50.224 67.6 48.902 66.72 47.539 66.441 C 45.981 66.123 45.535 65.001 46.806 64.598 C 47.275 64.449 47.571 64.103 47.466 63.828 C 47.36 63.553 47.437 63.074 47.637 62.764 C 48.08 62.076 48.918 63.056 48.608 63.9 C 48.5 64.194 48.754 64.4 49.225 64.4 C 50.219 64.4 50.654 65.412 50 66.2 C 49.601 66.681 49.649 66.835 50.255 67.032 C 50.665 67.164 51.36 67.422 51.8 67.605 C 52.24 67.788 53.095 68.045 53.7 68.177 C 54.305 68.308 54.8 68.592 54.8 68.808 C 54.8 69.023 55.128 69.2 55.529 69.2 C 56.327 69.2 58.543 72.244 58.177 72.837 C 58.054 73.037 58.618 73.2 59.431 73.2 C 60.496 73.2 61.169 73.481 61.842 74.208 C 62.356 74.762 63.321 75.324 63.988 75.458 C 64.655 75.591 65.2 75.858 65.2 76.05 C 65.2 76.242 65.608 76.4 66.107 76.4 C 66.606 76.4 67.663 76.841 68.456 77.379 C 69.248 77.918 70.37 78.478 70.949 78.623 C 71.527 78.768 72 79.047 72 79.243 C 72 79.44 72.467 79.6 73.037 79.6 C 73.607 79.6 74.531 79.96 75.091 80.4 C 75.65 80.84 76.494 81.2 76.965 81.2 C 77.436 81.2 78.222 81.48 78.712 81.823 C 79.201 82.166 79.792 82.328 80.026 82.184 C 80.259 82.04 80.788 82.227 81.2 82.6 C 81.612 82.973 82.158 83.15 82.413 82.992 C 82.985 82.639 84.8 83.561 84.8 84.206 C 84.8 84.464 85.16 85.002 85.6 85.4 C 86.04 85.798 86.4 86.437 86.4 86.819 C 86.4 87.202 86.656 87.613 86.969 87.733 C 87.661 87.998 87.364 89.451 86.555 89.762 C 86.243 89.882 85.815 90.434 85.604 90.99 C 85.17 92.132 84.345 92.288 83.454 91.397 C 83.002 90.944 82.777 90.914 82.555 91.273 C 82.392 91.537 82.47 91.823 82.729 91.91 C 83.302 92.101 83.359 94.255 82.8 94.6 C 82.15 95.002 82.343 95.6 83.123 95.6 C 83.582 95.6 84.104 95.016 84.552 94 C 85.149 92.647 85.443 92.4 86.456 92.4 C 87.413 92.4 87.61 92.259 87.436 91.7 C 87.182 90.884 87.489 90.371 88.6 89.759 C 89.04 89.517 89.458 88.932 89.528 88.459 C 89.605 87.941 89.945 87.6 90.385 87.6 C 91.269 87.6 91.704 86.664 91.1 86.06 C 90.783 85.743 90.541 85.868 90.221 86.511 C 89.569 87.824 88.092 87.907 87.776 86.649 C 87.436 85.293 87.822 84.8 89.224 84.8 C 90.003 84.8 90.4 84.597 90.4 84.2 C 90.4 83.827 90.778 83.6 91.4 83.6 C 92.2 83.6 92.4 83.8 92.4 84.6 C 92.4 85.806 92.792 85.868 93.7 84.808 C 94.868 83.444 97.004 84.678 96.639 86.506 C 96.45 87.452 96.533 87.631 97.104 87.514 C 97.607 87.411 97.784 87.015 97.741 86.087 C 97.709 85.381 97.845 84.904 98.043 85.027 C 98.242 85.15 99.575 85.25 101.005 85.25 C 103.511 85.25 103.629 85.295 104.249 86.495 L 104.893 87.74 L 105.427 86.47 C 106.104 84.86 107.782 84.683 108.451 86.152 C 108.74 86.785 109.124 87.04 109.604 86.915 C 110.082 86.79 110.412 87.007 110.588 87.563 C 110.734 88.024 111.183 88.4 111.584 88.4 C 111.986 88.4 112.422 88.681 112.554 89.025 C 112.686 89.369 112.976 89.539 113.197 89.402 C 113.945 88.94 113.607 88.464 112.2 88 C 111.128 87.646 110.8 87.318 110.8 86.597 C 110.8 85.925 110.542 85.619 109.9 85.528 C 108.789 85.37 108.653 83.878 109.73 83.67 C 110.455 83.531 111.686 84.738 111.358 85.268 C 110.807 86.16 112.235 85.865 113.495 84.826 C 115.188 83.43 116.8 83.19 116.8 84.332 C 116.8 84.735 116.35 85.306 115.8 85.6 C 114.683 86.198 114.484 86.8 115.402 86.8 C 115.734 86.8 116.803 85.99 117.779 85 C 119.663 83.089 120.397 82.832 121.2 83.8 C 121.474 84.13 121.931 84.4 122.216 84.4 C 122.5 84.4 122.796 84.588 122.873 84.819 C 122.951 85.053 124.307 85.261 125.947 85.292 C 129.008 85.349 129.784 85.815 128.796 87.005 C 127.983 87.984 128.875 87.677 130.015 86.586 C 131.652 85.018 134.311 86.329 132.72 87.92 C 132.347 88.293 132.347 88.4 132.72 88.4 C 132.984 88.4 133.2 88.22 133.2 88 C 133.2 87.78 133.47 87.6 133.8 87.6 C 134.13 87.6 134.4 87.42 134.4 87.2 C 134.4 86.98 134.94 86.8 135.6 86.8 C 136.26 86.8 136.8 86.989 136.8 87.221 C 136.8 87.452 137.326 87.825 137.968 88.049 C 138.61 88.273 139.228 88.696 139.341 88.99 C 139.454 89.284 140.086 89.643 140.745 89.788 C 142.415 90.155 142.98 90.916 142.395 92.009 C 141.768 93.181 142.023 93.293 143.206 92.367 L 144.2 91.589 L 143.256 90.795 C 142.238 89.938 142.301 88 143.348 88 C 144.193 88 147.2 90.344 147.2 91.003 C 147.2 91.336 147.558 91.6 148.01 91.6 C 148.497 91.6 148.965 91.983 149.185 92.561 C 149.635 93.745 150.4 94.277 150.4 93.406 C 150.4 93.054 149.725 92.036 148.9 91.144 C 148.075 90.253 147.04 89.06 146.6 88.493 C 146.16 87.926 145.08 86.716 144.2 85.804 C 143.32 84.892 141.79 83.078 140.801 81.773 C 139.812 80.468 138.896 79.31 138.767 79.2 C 138.637 79.09 138.367 78.707 138.166 78.349 C 137.804 77.705 134.381 73.678 132.357 71.515 C 131.783 70.902 131.011 70.4 130.641 70.4 C 130.017 70.4 130.598 71.185 133.422 74.156 C 134.156 74.927 134.429 76.083 134 76.6 C 133.696 76.966 133.88 77.285 134.693 77.799 C 138.247 80.048 144.105 87.6 142.296 87.6 C 141.828 87.6 141.661 87.456 138.353 84.198 C 136.199 82.076 133.568 81.175 135.383 83.181 C 136.81 84.758 134.403 86.391 132.769 84.955 C 132.421 84.65 131.656 84.4 131.069 84.4 C 130.481 84.4 130 84.22 130 84 C 130 83.78 129.754 83.6 129.454 83.6 C 128.552 83.6 126.8 81.997 126.8 81.171 C 126.8 80.169 128.358 80.133 129.425 81.111 C 132.188 83.644 134.194 84.174 133.928 82.302 C 133.833 81.633 133.574 81.431 132.925 81.521 C 131.877 81.666 129.579 80.541 127.445 78.84 C 125.67 77.424 125.331 77.357 124.37 78.227 C 123.678 78.854 122 78.342 122 77.504 C 122 77.337 121.738 77.2 121.419 77.2 C 120.15 77.2 118.8 76.261 118.8 75.379 C 118.8 74.253 119.606 73.923 120.593 74.644 C 121.193 75.083 121.419 75.095 121.67 74.7 C 122.276 73.746 121.987 73.6 119.5 73.598 C 117.337 73.597 116.836 73.448 115.783 72.498 C 114.122 71 112.668 70.197 112.504 70.689 C 111.993 72.222 111.278 72.605 109.932 72.065 C 109.2 71.771 108.06 71.393 107.4 71.225 C 106.74 71.058 105.3 70.506 104.2 70 C 102.022 68.997 100.57 68.58 97.2 67.987 C 95.99 67.775 94.073 67.434 92.94 67.231 C 91.175 66.914 85.298 64.724 83.105 63.567 C 82.723 63.365 81.969 63.2 81.429 63.2 C 80.889 63.2 80.336 63.02 80.2 62.8 C 80.064 62.58 79.344 62.4 78.6 62.4 C 77.856 62.4 77.136 62.22 77 62 C 76.864 61.78 76.305 61.6 75.757 61.6 C 75.209 61.6 74.016 61.24 73.106 60.8 C 72.195 60.36 71.214 60 70.925 60 C 70.636 60 70.4 59.82 70.4 59.6 C 70.4 59.38 69.961 59.2 69.424 59.2 C 68.887 59.2 68.349 59.041 68.23 58.848 C 67.631 57.879 66 58.106 66 59.158 M 266 60.818 C 266 61.217 265.746 61.797 265.436 62.107 C 265.126 62.417 264.811 63.104 264.736 63.635 C 264.646 64.278 264.3 64.643 263.7 64.728 C 262.541 64.892 262.306 60.716 263.438 60.083 C 264.424 59.531 266 59.983 266 60.818 M 269.2 60.6 C 269.2 60.93 268.93 61.2 268.6 61.2 C 268.27 61.2 268 60.93 268 60.6 C 268 60.27 268.27 60 268.6 60 C 268.93 60 269.2 60.27 269.2 60.6 M 296.4 60.776 C 296.4 61.248 295.62 61.753 295.333 61.467 C 295.047 61.18 295.552 60.4 296.024 60.4 C 296.231 60.4 296.4 60.569 296.4 60.776 M 358.49 62.071 C 358.707 62.72 359.902 63.431 360.228 63.105 C 360.555 62.778 359.434 61.6 358.795 61.6 C 358.541 61.6 358.404 61.812 358.49 62.071 M 304.8 62.8 C 304.8 63.02 304.53 63.2 304.2 63.2 C 303.87 63.2 303.6 63.02 303.6 62.8 C 303.6 62.58 303.87 62.4 304.2 62.4 C 304.53 62.4 304.8 62.58 304.8 62.8 M 61.19 66.767 C 61.555 67.933 62.156 69.056 62.527 69.263 C 63.473 69.793 63.402 71.2 62.428 71.2 C 61.687 71.2 59.2 68.073 59.2 67.142 C 59.2 66.912 58.887 66.193 58.504 65.545 C 57.896 64.515 57.883 64.32 58.401 63.999 C 59.382 63.393 60.472 64.476 61.19 66.767 M 67.633 64 C 67.835 64 68 64.36 68 64.8 C 68 65.822 66.956 65.839 66.414 64.826 C 65.839 63.752 65.896 63.474 66.633 63.757 C 66.981 63.891 67.431 64 67.633 64 M 71.365 66.242 C 72.179 66.554 71.782 67.2 70.776 67.2 C 70 67.2 69.764 66.769 70.267 66.267 C 70.591 65.942 70.584 65.942 71.365 66.242 M 68.617 68.127 C 70.083 68.827 70.206 69.054 69.62 69.982 C 68.757 71.346 66.741 69.175 66.852 67 C 66.881 66.43 66.942 66.382 67.063 66.834 C 67.157 67.182 67.856 67.765 68.617 68.127 M 253.808 67.899 C 253.653 68.724 253.408 69.489 253.263 69.599 C 252.899 69.877 252.075 71.222 251.609 72.3 C 251.03 73.639 250.4 73.389 250.4 71.819 C 250.4 69.495 252.179 66.4 253.514 66.4 C 253.962 66.4 254.027 66.732 253.808 67.899 M 79.2 69.4 C 79.2 70.519 78.231 70.778 77.841 69.764 C 77.538 68.973 77.866 68.4 78.624 68.4 C 78.972 68.4 79.2 68.796 79.2 69.4 M 378 69.115 C 378 70.041 380.222 72.698 380.647 72.281 C 380.826 72.105 380.748 71.655 380.474 71.281 C 380.201 70.906 379.667 70.106 379.289 69.503 C 378.495 68.237 378 68.088 378 69.115 M 75.2 69.553 C 75.2 69.748 75.56 70.001 76 70.116 C 76.927 70.358 77.086 71.2 76.205 71.2 C 75.554 71.2 74 70.01 74 69.511 C 74 69.34 74.27 69.2 74.6 69.2 C 74.93 69.2 75.2 69.359 75.2 69.553 M 72.8 70.4 C 73.809 71.409 73.831 72.4 72.844 72.4 C 71.696 72.4 70.221 71.043 70.521 70.262 C 70.863 69.369 71.827 69.427 72.8 70.4 M 51.2 70.333 C 51.2 70.907 51.654 71.154 52.273 70.917 C 52.757 70.731 52.768 70.626 52.334 70.35 C 51.65 69.917 51.2 69.91 51.2 70.333 M 256 70.6 C 256 70.933 255.644 71.2 255.2 71.2 C 254.315 71.2 254.116 70.581 254.9 70.265 C 255.77 69.914 256 69.984 256 70.6 M 359.693 70.8 C 359.276 71.467 359.293 71.6 359.797 71.6 C 360.133 71.6 360.4 71.246 360.4 70.8 C 360.4 70.36 360.353 70 360.296 70 C 360.239 70 359.968 70.36 359.693 70.8 M 263.6 71 C 263.6 71.333 263.244 71.6 262.8 71.6 C 262.356 71.6 262 71.333 262 71 C 262 70.667 262.356 70.4 262.8 70.4 C 263.244 70.4 263.6 70.667 263.6 71 M 76 72.61 C 76 72.945 76.45 73.391 77 73.6 C 77.55 73.809 78 74.165 78 74.39 C 78 75.006 76.967 74.883 76.4 74.2 C 76.126 73.87 75.575 73.6 75.175 73.6 C 74.338 73.6 73.838 72.985 74.2 72.4 C 74.59 71.769 76 71.933 76 72.61 M 114 73.633 C 114 74.608 113.065 74.47 112.871 73.467 C 112.794 73.072 112.998 72.8 113.371 72.8 C 113.742 72.8 114 73.142 114 73.633 M 137.216 73.295 C 137.207 73.678 137.515 74.368 137.9 74.829 C 139.752 77.047 140 77.296 140 76.937 C 140 76.724 139.662 76.188 139.249 75.745 C 138.836 75.302 138.213 74.413 137.865 73.77 C 137.434 72.973 137.227 72.822 137.216 73.295 M 232.492 74.361 C 231.444 75.779 231.385 76.057 232.2 75.745 C 232.53 75.618 232.8 75.279 232.8 74.991 C 232.8 74.702 233.007 74.398 233.26 74.313 C 233.513 74.229 233.645 73.934 233.552 73.657 C 233.45 73.349 233.038 73.623 232.492 74.361 M 359.629 74.254 C 358.731 75.395 358.577 76 359.184 76 C 359.735 76 361.2 74.346 361.2 73.725 C 361.2 72.887 360.526 73.114 359.629 74.254 M 111.12 74.88 C 111.918 75.678 111.689 76.468 110.7 76.328 C 110.122 76.246 109.754 75.878 109.672 75.3 C 109.532 74.311 110.322 74.082 111.12 74.88 M 115.73 74.961 C 115.955 75.549 115.697 76 115.133 76 C 114.95 76 114.8 75.64 114.8 75.2 C 114.8 74.283 115.409 74.126 115.73 74.961 M 372.4 75.8 C 372.4 76.104 372.22 76.464 372 76.6 C 371.772 76.741 371.6 76.396 371.6 75.8 C 371.6 75.204 371.772 74.859 372 75 C 372.22 75.136 372.4 75.496 372.4 75.8 M 42.646 76.7 C 42.511 77.085 42.295 77.625 42.166 77.9 C 42.038 78.175 42.089 78.4 42.279 78.4 C 42.469 78.4 42.828 77.86 43.078 77.2 C 43.327 76.54 43.387 76 43.212 76 C 43.037 76 42.782 76.315 42.646 76.7 M 281.435 77.003 C 280.795 77.553 280.379 78.112 280.511 78.245 C 280.644 78.377 281.348 77.927 282.076 77.245 C 283.652 75.768 283.11 75.563 281.435 77.003 M 283.6 76.6 C 283.6 76.93 283.78 77.2 284 77.2 C 284.22 77.2 284.4 76.93 284.4 76.6 C 284.4 76.27 284.22 76 284 76 C 283.78 76 283.6 76.27 283.6 76.6 M 229.208 78.192 C 228.241 79.177 227.574 80.107 227.725 80.258 C 228.013 80.546 231.2 77.313 231.2 76.733 C 231.2 76.201 231.063 76.302 229.208 78.192 M 288.4 76.967 C 288.4 77.278 288.175 77.639 287.9 77.769 C 287.625 77.898 287.894 77.938 288.497 77.858 C 289.101 77.778 289.798 77.957 290.046 78.256 C 290.295 78.555 290.825 78.8 291.225 78.8 C 291.625 78.8 292.064 78.98 292.2 79.2 C 292.336 79.42 292.876 79.6 293.4 79.6 C 293.924 79.6 294.464 79.42 294.6 79.2 C 294.96 78.617 297.2 78.703 297.199 79.3 C 297.199 79.664 297.88 79.757 299.699 79.641 L 302.2 79.482 L 299.547 79.029 C 298.088 78.78 296.619 78.348 296.283 78.069 C 295.87 77.726 295.587 77.698 295.412 77.981 C 295.039 78.584 292.979 78.497 292.446 77.856 C 292.191 77.548 291.565 77.394 291.002 77.502 C 290.332 77.63 289.93 77.482 289.762 77.046 C 289.457 76.25 288.4 76.189 288.4 76.967 M 356.4 77.6 C 356.4 78.04 356.58 78.4 356.8 78.4 C 357.02 78.4 357.2 78.04 357.2 77.6 C 357.2 77.16 357.02 76.8 356.8 76.8 C 356.58 76.8 356.4 77.16 356.4 77.6 M 360.991 77.214 C 360.687 77.707 364.676 81.858 365.073 81.461 C 365.223 81.31 365.134 80.974 364.873 80.713 C 364.613 80.453 364.4 79.749 364.4 79.149 C 364.4 77.702 361.653 76.143 360.991 77.214 M 140.638 78.5 C 141.057 78.995 141.499 79.49 141.619 79.6 C 141.74 79.71 142.274 80.43 142.806 81.2 C 143.974 82.89 144.802 83.775 144.796 83.329 C 144.793 83.148 143.983 81.924 142.996 80.608 C 142.008 79.292 141.2 78.077 141.2 77.908 C 141.2 77.739 140.902 77.6 140.538 77.6 C 139.952 77.6 139.963 77.703 140.638 78.5 M 132.046 79.594 C 133.449 80.83 134 81.066 134 80.429 C 134 79.896 132.003 78.4 131.292 78.4 C 130.927 78.4 131.222 78.867 132.046 79.594 M 285.093 79.2 C 284.716 79.64 284.136 80 283.804 80 C 283.111 80 282.997 80.628 283.621 81.013 C 283.853 81.156 284.348 80.932 284.721 80.514 C 285.095 80.097 285.845 79.45 286.389 79.078 C 287.286 78.463 287.304 78.4 286.578 78.4 C 286.138 78.4 285.47 78.76 285.093 79.2 M 278 79.2 C 278 79.42 278.45 79.6 279 79.6 C 279.55 79.6 280 79.42 280 79.2 C 280 78.98 279.55 78.8 279 78.8 C 278.45 78.8 278 78.98 278 79.2 M 304.4 79.8 C 304.4 80.54 304.44 80.54 305.854 79.802 L 307 79.205 L 305.7 79.202 C 304.81 79.201 304.4 79.389 304.4 79.8 M 122 80.2 C 122 80.836 120.595 81.039 120.234 80.456 C 119.939 79.978 120.395 79.6 121.267 79.6 C 121.67 79.6 122 79.87 122 80.2 M 359.386 80.688 C 359.698 81.931 361.928 84.389 362.749 84.396 C 363.182 84.399 363.16 84.21 362.643 83.5 C 362.282 83.005 361.768 82.15 361.499 81.6 C 360.441 79.438 358.906 78.776 359.386 80.688 M 269.771 80.571 C 269.348 80.881 269.14 81.274 269.31 81.443 C 269.48 81.613 269.919 81.452 270.286 81.086 C 271.15 80.221 270.77 79.841 269.771 80.571 M 273.584 80.81 C 273.169 81.066 273.129 81.289 273.44 81.6 C 273.752 81.912 274.01 81.87 274.356 81.453 C 274.935 80.755 274.397 80.307 273.584 80.81 M 281.812 81.717 C 281.641 82.112 281.613 82.547 281.751 82.684 C 282.157 83.09 282.484 82.52 282.297 81.731 C 282.132 81.033 282.11 81.032 281.812 81.717 M 37.334 82.1 C 37.02 82.601 36.974 82.797 36.861 84.103 C 36.827 84.489 36.35 85.197 35.8 85.675 C 34.806 86.539 34.432 88 35.204 88 C 35.426 88 35.916 87.64 36.293 87.2 C 36.67 86.76 37.213 86.4 37.501 86.4 C 38.265 86.4 38.569 85.286 37.995 84.594 C 37.703 84.242 37.599 83.507 37.74 82.799 C 37.994 81.528 37.849 81.277 37.334 82.1 M 247.696 82.395 C 247.423 82.832 247.215 83.687 247.234 84.295 L 247.269 85.4 L 247.579 84.377 C 247.75 83.814 248.101 82.959 248.359 82.477 C 248.944 81.383 248.372 81.312 247.696 82.395 M 251.061 83.029 C 250.228 84.031 250.086 84.4 250.534 84.4 C 250.87 84.4 251.255 84.057 251.388 83.637 C 251.521 83.217 251.894 82.773 252.215 82.65 C 252.811 82.421 253.046 81.576 252.5 81.629 C 252.335 81.645 251.687 82.275 251.061 83.029 M 271.21 83.498 C 270.644 84.223 270.279 84.429 270.142 84.1 C 269.809 83.301 269.22 83.518 268.715 84.627 C 267.807 86.621 264.4 87.331 264.4 85.527 C 264.4 84.668 264.369 84.66 263.7 85.337 C 263.033 86.012 263.033 86.064 263.7 86.443 C 264.085 86.661 264.4 87.196 264.4 87.632 C 264.4 88.595 265.407 89.058 266.154 88.438 C 266.454 88.189 267.023 88.111 267.419 88.263 C 267.979 88.477 268.082 88.39 267.882 87.869 C 267.552 87.01 267.938 86 268.596 86 C 268.877 86 269.201 86.36 269.316 86.8 C 269.472 87.395 269.867 87.603 270.863 87.612 C 271.598 87.618 273.46 87.974 275 88.403 L 277.8 89.183 L 278.8 88.052 C 281.085 85.467 281.717 84.4 280.962 84.4 C 280.205 84.4 278.416 85.881 278.218 86.671 C 277.925 87.837 276.553 87.911 276.194 86.78 C 276.041 86.3 276.196 85.561 276.567 84.994 C 277.406 83.714 277.447 82.097 276.624 82.78 C 276.307 83.043 275.992 83.632 275.924 84.088 C 275.634 86.027 272.8 85.424 272.8 83.424 C 272.8 82.355 272.075 82.389 271.21 83.498 M 285.684 83.015 C 285.26 83.496 285.27 83.6 285.741 83.6 C 286.057 83.6 286.418 83.33 286.545 83 C 286.836 82.241 286.36 82.249 285.684 83.015 M 289.243 83.223 C 288.253 84.048 288.32 84.67 289.357 84.272 C 290.004 84.023 291.02 82.392 290.514 82.413 C 290.341 82.421 289.77 82.785 289.243 83.223 M 350.472 83.302 C 350.611 84.278 351.326 84.394 351.52 83.471 C 351.585 83.158 351.348 82.789 350.992 82.652 C 350.496 82.462 350.375 82.614 350.472 83.302 M 354.224 83.667 C 353.213 84.613 353.143 84.803 353.724 85.026 C 354.712 85.405 354.55 86.699 353.38 87.783 C 352.763 88.356 352.526 88.831 352.78 88.988 C 353.011 89.13 353.2 89.057 353.2 88.824 C 353.2 88.198 355.027 88.309 355.574 88.968 C 356.174 89.691 358.44 88.55 358.293 87.6 C 358.233 87.211 358.593 86.955 359.318 86.872 L 360.436 86.743 L 359.431 85.953 C 358.878 85.518 358.195 84.687 357.913 84.107 C 357.137 82.511 355.65 82.334 354.224 83.667 M 328.964 83.8 C 328.826 84.35 328.553 84.8 328.357 84.8 C 328.16 84.8 327.987 85.295 327.971 85.9 C 327.93 87.443 326.704 89.376 325.67 89.528 C 324.68 89.673 324.581 90.007 325.3 90.77 C 325.7 91.194 325.7 91.337 325.3 91.483 C 325.025 91.584 324.8 91.881 324.8 92.142 C 324.8 94.577 320.12 96.549 317.574 95.186 C 316.697 94.717 316.491 92.57 317.296 92.301 C 317.657 92.181 317.611 91.954 317.125 91.468 C 316.132 90.475 315.359 90.65 314.344 92.1 C 311.874 95.625 304.045 97.194 302.625 94.448 C 301.554 92.378 298.913 92.517 299.44 94.616 L 299.687 95.6 L 296.201 95.6 C 292.985 95.6 292.656 95.525 291.95 94.627 C 291.529 94.092 290.783 93.597 290.292 93.527 C 289.722 93.446 289.354 93.076 289.272 92.5 C 288.979 90.436 287.145 91.357 287.28 93.5 L 287.4 95.4 L 284.4 95.385 C 282.75 95.377 280.32 95.33 279 95.28 C 265.723 94.786 262.983 95.85 256.897 103.864 C 255.249 106.034 255.176 106.127 253.793 107.8 C 253.247 108.46 252.801 109.21 252.8 109.467 C 252.8 109.723 252.658 109.993 252.484 110.067 C 252.098 110.229 249.6 113.924 249.6 114.332 C 249.6 114.492 249.24 114.883 248.8 115.2 C 247.526 116.118 248.01 117.2 249.695 117.2 C 250.552 117.2 255.93 111.224 256.426 109.72 C 258.084 104.696 262.665 101.324 268.8 100.611 C 270.01 100.471 271.9 100.199 273 100.008 C 280.282 98.743 282.192 99.136 281.084 101.672 C 278.997 106.449 278.871 115.923 280.864 118.18 C 281.049 118.389 281.2 119.064 281.2 119.68 C 281.2 120.296 281.38 120.8 281.6 120.8 C 281.82 120.8 282 121.032 282 121.315 C 282 121.598 282.533 122.453 283.184 123.215 C 283.835 123.977 284.375 124.759 284.384 124.953 C 284.404 125.392 286.471 127.199 286.953 127.2 C 287.147 127.2 287.597 127.534 287.953 127.943 C 289.175 129.345 291.849 130.4 294.184 130.4 C 295.471 130.4 296.4 130.577 296.4 130.822 C 296.4 132.061 306.978 130.539 310.647 128.773 C 312.606 127.83 316.737 124.41 316.774 123.7 C 316.788 123.425 316.938 123.2 317.107 123.2 C 317.605 123.2 320 118.946 320 118.061 C 320 117.613 320.165 117.145 320.367 117.02 C 321.465 116.342 320.813 106.649 319.564 105.096 C 317.801 102.901 318.065 101.789 320.338 101.837 C 321.293 101.858 322.197 102.072 322.347 102.313 C 322.496 102.555 323.334 102.755 324.209 102.757 C 325.084 102.76 326.79 103.055 328 103.413 C 329.21 103.771 330.83 104.198 331.6 104.362 C 334.433 104.967 335.901 105.949 336.178 107.426 C 336.32 108.18 336.843 109.236 337.34 109.773 L 338.244 110.748 L 341.353 109.223 C 343.063 108.384 344.664 107.496 344.911 107.249 C 345.158 107.002 345.774 106.8 346.28 106.8 C 346.786 106.8 347.2 106.62 347.2 106.4 C 347.2 106.18 347.388 106 347.617 106 C 347.847 106 348.513 105.557 349.097 105.016 L 350.158 104.031 L 349.279 103.269 C 348.796 102.849 348.4 102.063 348.4 101.522 C 348.4 100.657 348.256 100.56 347.2 100.715 C 345.895 100.906 345.786 100.747 346.414 99.574 C 346.7 99.04 346.7 98.8 346.414 98.8 C 346.186 98.8 346 99.066 346 99.391 C 346 100.259 344.186 101.313 343.22 101.006 C 342.173 100.674 342.18 100.085 343.241 99.165 L 344.081 98.436 L 343.141 98.209 C 342.623 98.085 341.48 98.031 340.6 98.091 C 339.205 98.186 338.984 98.084 338.872 97.298 C 338.704 96.114 339.737 95.736 340.957 96.535 C 342.167 97.328 342.475 97.006 342.152 95.285 C 341.919 94.042 342.053 93.769 343.585 92.369 C 344.514 91.519 345.204 90.611 345.117 90.35 C 344.915 89.745 343.2 89.085 343.2 89.613 C 343.2 89.826 342.97 90 342.688 90 C 342.407 90 341.917 90.36 341.6 90.8 C 341.283 91.24 340.808 91.6 340.545 91.6 C 340.282 91.6 340.007 91.737 339.933 91.904 C 339.41 93.1 336.481 94.8 334.945 94.8 C 334.024 94.8 332.13 95.158 330.736 95.595 C 326.644 96.878 325.416 96.328 327.146 93.987 C 327.616 93.352 328 92.555 328 92.216 C 328 91.877 328.18 91.6 328.4 91.6 C 328.62 91.6 328.8 91.344 328.8 91.031 C 328.8 90.718 329.365 89.897 330.055 89.207 C 331.191 88.071 331.261 87.862 330.798 86.996 C 330.381 86.218 330.383 85.806 330.807 84.783 C 331.244 83.728 331.237 83.469 330.764 83.169 C 329.8 82.559 329.225 82.761 328.964 83.8 M 345.101 83.12 C 344.501 83.239 344.481 83.338 344.962 83.819 C 345.27 84.127 345.646 85.284 345.799 86.39 C 346.113 88.678 346.583 88.986 346.951 87.145 C 347.123 86.283 347.021 85.75 346.626 85.445 C 346.309 85.2 345.994 84.546 345.925 83.991 C 345.836 83.276 345.596 83.022 345.101 83.12 M 296.4 83.849 C 296.4 84.38 296.509 84.408 297 84 C 297.33 83.726 297.6 83.434 297.6 83.351 C 297.6 83.268 297.33 83.2 297 83.2 C 296.67 83.2 296.4 83.492 296.4 83.849 M 145.206 84.071 C 145.209 84.362 146.334 85.82 147.706 87.312 C 149.078 88.803 150.902 90.832 151.759 91.819 C 152.616 92.807 153.394 93.539 153.488 93.446 C 153.668 93.266 152.786 92.106 151.3 90.568 C 150.805 90.056 150.4 89.52 150.4 89.379 C 150.4 89.237 149.5 88.239 148.4 87.162 C 147.3 86.085 146.4 85.1 146.4 84.973 C 146.4 84.847 146.13 84.473 145.8 84.143 C 145.34 83.682 145.201 83.666 145.206 84.071 M 264.8 84 C 264.8 84.22 265.07 84.4 265.4 84.4 C 265.73 84.4 266 84.22 266 84 C 266 83.78 265.73 83.6 265.4 83.6 C 265.07 83.6 264.8 83.78 264.8 84 M 283.467 83.867 C 282.86 84.474 283.172 85.722 283.8 85.2 C 284.13 84.926 284.4 84.454 284.4 84.151 C 284.4 83.568 283.913 83.42 283.467 83.867 M 315.455 84.2 C 315.329 84.53 314.971 84.8 314.662 84.8 C 314.352 84.8 313.852 85.096 313.552 85.457 C 313.13 85.967 313.386 85.922 314.687 85.257 C 315.612 84.786 316.645 84.4 316.984 84.4 C 317.323 84.4 317.6 84.22 317.6 84 C 317.6 83.362 315.709 83.538 315.455 84.2 M 337.262 84.862 C 336.526 85.519 336.009 86.143 336.114 86.248 C 336.219 86.352 336.603 86.14 336.967 85.776 C 337.331 85.412 338.057 85.088 338.58 85.057 C 339.357 85.01 339.449 84.89 339.079 84.4 C 338.83 84.07 338.62 83.77 338.613 83.733 C 338.606 83.696 337.997 84.204 337.262 84.862 M 342.41 83.8 C 342.356 84.02 342.344 84.602 342.383 85.093 C 342.494 86.461 342.107 86.821 340.986 86.395 C 340.144 86.075 340 86.135 340 86.81 C 340 87.244 340.18 87.6 340.4 87.6 C 340.62 87.6 340.8 87.901 340.8 88.27 C 340.8 88.831 340.955 88.794 341.761 88.036 C 342.677 87.176 342.743 87.168 343.149 87.867 C 343.519 88.503 343.577 88.438 343.588 87.38 C 343.595 86.709 343.435 85.989 343.234 85.78 C 343.032 85.571 342.787 84.95 342.688 84.4 C 342.59 83.85 342.465 83.58 342.41 83.8 M 356.971 84.629 C 357.799 85.456 357.765 86.081 356.849 86.865 C 356.152 87.462 355.2 85.954 355.2 84.254 C 355.2 83.763 356.35 84.007 356.971 84.629 M 46.829 85.3 C 46.845 85.795 47.16 86.662 47.529 87.226 C 47.898 87.79 48.612 88.87 49.116 89.626 C 49.619 90.382 50.136 91.491 50.264 92.091 C 50.392 92.691 50.745 93.388 51.048 93.64 C 51.352 93.892 51.6 94.682 51.6 95.395 C 51.6 96.108 51.957 97.146 52.394 97.702 C 53.522 99.136 52.505 100.102 51.173 98.861 C 50.482 98.217 50.105 98.132 49.298 98.439 C 48.218 98.849 46.8 98.011 46.8 96.962 C 46.8 96.173 46.309 96.034 44.79 96.391 C 43.659 96.657 43.586 96.727 44.4 96.765 C 45.802 96.831 46.472 97.348 46.171 98.132 C 45.9 98.838 43.6 99.103 43.6 98.427 C 43.6 97.806 41.667 98.216 40.747 99.033 C 40.126 99.584 39.834 99.659 39.708 99.3 C 39.362 98.309 37.478 98.693 37.748 99.7 C 37.881 100.195 37.992 100.827 37.995 101.103 C 37.999 101.5 38.164 101.505 38.768 101.127 C 39.375 100.748 39.672 100.762 40.191 101.193 C 41.175 102.009 42.866 102.063 43.427 101.295 C 43.838 100.734 44.014 100.713 44.557 101.164 C 45.325 101.802 45.393 102.646 44.7 102.96 C 44.425 103.084 44.552 103.143 44.982 103.091 C 45.436 103.036 45.875 102.576 46.027 101.998 C 46.286 101.016 46.457 101.168 46.889 102.763 C 46.987 103.123 47.342 102.852 47.876 102.008 C 48.663 100.765 48.726 100.738 48.982 101.545 C 49.322 102.616 49.845 102.636 50.4 101.6 C 50.635 101.16 51.207 100.8 51.67 100.8 C 52.133 100.8 52.716 100.52 52.966 100.178 C 53.817 99.015 57.2 102.92 57.2 105.065 C 57.2 108.22 53.799 107.031 52.64 103.47 C 52.045 101.643 51.003 102.947 50.883 105.668 L 50.765 108.329 L 48.759 108.81 C 47.05 109.22 46.494 109.192 44.997 108.62 C 43.668 108.112 43.046 108.054 42.436 108.381 C 41.691 108.78 38.179 108.079 35.5 106.997 C 35.037 106.81 34.8 106.899 34.8 107.261 C 34.8 107.604 36.225 108.243 38.615 108.973 C 40.992 109.7 42.801 110.51 43.415 111.124 C 44.585 112.294 44.765 113.453 43.7 112.965 C 43.315 112.788 41.83 112.607 40.4 112.563 C 38.97 112.518 38.34 112.564 39 112.666 C 39.66 112.767 40.411 113.124 40.67 113.46 C 40.964 113.842 42.088 114.152 43.67 114.289 C 46.642 114.545 47.6 114.954 47.6 115.968 C 47.6 116.565 48.025 116.761 49.794 116.982 C 51 117.133 52.091 117.423 52.217 117.628 C 52.9 118.733 56.8 117.57 56.8 116.262 C 56.8 114.511 62.909 110.8 65.792 110.8 C 67.508 110.8 68.168 110.606 68.966 109.867 C 70.209 108.714 75.26 107.851 79.375 108.088 C 82.162 108.248 83.446 109.028 81.324 109.271 C 79.953 109.428 79.868 115.383 81.19 118.6 C 81.371 119.04 81.739 119.985 82.008 120.7 C 82.277 121.415 82.655 122 82.849 122 C 83.042 122 83.2 122.196 83.2 122.436 C 83.2 123.637 87.652 129.2 88.612 129.2 C 88.882 129.2 89.326 129.47 89.6 129.8 C 89.874 130.13 90.515 130.4 91.025 130.4 C 91.535 130.4 92.064 130.58 92.2 130.8 C 92.336 131.02 92.866 131.2 93.378 131.2 C 93.89 131.2 94.82 131.466 95.446 131.79 C 96.167 132.164 97.117 132.295 98.041 132.147 C 98.922 132.006 99.608 132.089 99.773 132.357 C 100.204 133.054 102.785 132.905 103.068 132.166 C 103.25 131.694 103.389 131.658 103.616 132.025 C 103.856 132.414 104.287 132.415 105.66 132.031 C 106.617 131.764 107.85 131.423 108.401 131.273 C 112.004 130.291 117.75 125.323 119.387 121.774 C 121.162 117.925 121.955 110.915 120.752 109.712 C 120.228 109.188 121.058 106.94 121.895 106.619 C 122.529 106.376 123.6 106.768 123.6 107.243 C 123.6 107.439 124.038 107.6 124.574 107.6 C 126.116 107.6 127.509 108.283 127.793 109.177 C 127.936 109.63 128.267 110.003 128.527 110.007 C 129.628 110.024 136 114.981 136 115.82 C 136 116.949 141.965 122.527 142.604 121.996 C 143.444 121.299 143.344 120.4 142.427 120.4 C 141.965 120.4 140.479 119.085 138.727 117.125 C 137.117 115.324 134.99 113.002 134 111.966 C 133.01 110.93 131.159 108.994 129.887 107.663 C 128.615 106.332 126.725 104.828 125.687 104.322 C 124.649 103.815 123.74 103.265 123.667 103.1 C 123.593 102.935 117.398 102.8 109.898 102.8 C 97.76 102.8 96.183 102.727 95.53 102.137 C 94.928 101.592 94.614 101.556 93.779 101.937 C 92.892 102.341 92.648 102.277 91.867 101.434 C 90.839 100.325 88.253 99.667 87.801 100.399 C 87.641 100.658 87.71 101.07 87.955 101.315 C 88.87 102.23 88.428 102.8 86.8 102.8 C 85.92 102.8 85.2 102.62 85.2 102.4 C 85.2 102.18 84.93 102 84.6 102 C 84.27 102 84 102.143 84 102.317 C 84 102.698 80.782 103.6 79.425 103.6 C 78.675 103.6 78.358 103.284 77.991 102.172 C 77.535 100.791 77.469 100.752 75.989 101.002 C 74.171 101.309 72.916 99.986 73.357 98.227 C 73.492 97.689 73.422 97.137 73.201 97.001 C 72.981 96.864 72.8 96.189 72.8 95.501 L 72.8 94.249 L 72.014 95.093 C 70.191 97.049 68.073 96.538 69.312 94.442 C 69.901 93.443 69.915 93.227 69.413 92.811 C 68.652 92.18 67.935 92.657 68.021 93.738 C 68.138 95.231 68.017 95.6 67.409 95.6 C 67.084 95.6 66.528 96.043 66.173 96.584 C 65.819 97.126 65.185 97.678 64.764 97.811 C 63.738 98.137 63.802 98.559 64.974 99.186 C 67.547 100.563 66.569 104.241 63.733 103.853 C 62.79 103.724 61.928 103.794 61.794 104.01 C 61.14 105.068 58.975 103.794 57.47 101.465 C 56.682 100.247 56.817 99.2 57.76 99.2 C 58.34 99.2 59.06 97.727 58.671 97.337 C 58.38 97.046 56.8 97.955 56.8 98.414 C 56.8 98.626 56.549 98.8 56.243 98.8 C 55.585 98.8 55.137 97.83 55.435 97.053 C 55.56 96.728 55.311 96.418 54.823 96.29 C 54.37 96.172 54 95.753 54 95.359 C 54 94.966 53.58 94.184 53.066 93.622 C 52.552 93.06 51.812 91.732 51.421 90.67 C 51.031 89.609 50.416 88.632 50.056 88.5 C 49.195 88.183 48.814 87.591 48.806 86.562 C 48.8 85.786 47.687 84.4 47.069 84.4 C 46.921 84.4 46.813 84.805 46.829 85.3 M 291.969 85.037 C 291.561 85.529 291.551 85.83 291.924 86.427 C 292.186 86.846 292.4 87.462 292.4 87.795 C 292.4 88.128 292.475 88.4 292.567 88.4 C 292.659 88.4 293.001 88.502 293.327 88.627 C 293.783 88.802 293.92 88.524 293.92 87.427 C 293.92 86.642 293.758 86 293.56 86 C 293.362 86 293.2 85.741 293.2 85.424 C 293.2 84.54 292.551 84.336 291.969 85.037 M 295.002 85.198 C 294.603 85.639 294.407 86 294.567 86 C 294.988 86 296.128 84.795 295.912 84.579 C 295.811 84.478 295.402 84.756 295.002 85.198 M 347.799 85.202 C 347.639 85.707 347.835 86.372 348.328 86.999 L 349.11 87.994 L 349.302 86.697 C 349.622 84.538 348.397 83.319 347.799 85.202 M 351.68 85.28 C 351.013 85.947 351.08 86.8 351.8 86.8 C 352.173 86.8 352.4 86.422 352.4 85.8 C 352.4 84.66 352.342 84.618 351.68 85.28 M 251.56 86.442 C 250.922 87.126 250.4 87.858 250.4 88.071 C 250.4 88.455 250.518 88.348 252.37 86.282 C 253.722 84.773 252.983 84.92 251.56 86.442 M 259.041 85.836 C 258.748 86.6 259.108 87.304 259.628 86.983 C 260.104 86.689 260.116 85.2 259.643 85.2 C 259.446 85.2 259.176 85.486 259.041 85.836 M 285.686 86.181 C 284.756 87.364 283.803 87.492 283.253 86.509 C 282.909 85.895 282.812 85.937 282.378 86.888 C 282.11 87.477 281.51 88.033 281.045 88.125 C 280.58 88.216 281.28 88.317 282.6 88.348 C 283.92 88.379 286.485 88.52 288.3 88.662 C 291.15 88.884 291.6 88.832 291.6 88.286 C 291.6 87.565 290.356 87.038 288.6 87.016 C 287.69 87.004 287.4 86.815 287.398 86.233 C 287.396 85.067 286.582 85.043 285.686 86.181 M 119.6 86.037 C 119.6 86.278 119.96 86.569 120.4 86.684 C 120.84 86.799 121.2 87.052 121.2 87.247 C 121.2 87.441 121.56 87.6 122 87.6 C 122.53 87.6 122.8 87.333 122.8 86.81 C 122.8 86.146 122.609 86.058 121.6 86.26 C 120.836 86.413 120.4 86.337 120.4 86.05 C 120.4 85.803 120.22 85.6 120 85.6 C 119.78 85.6 119.6 85.797 119.6 86.037 M 93.613 87.9 C 93.606 88.835 93.42 89.6 93.2 89.6 C 92.98 89.6 92.8 89.892 92.8 90.249 C 92.8 90.772 92.913 90.804 93.382 90.415 C 93.703 90.149 94.116 90.025 94.302 90.139 C 94.862 90.485 95.521 89.856 95.812 88.696 C 96.033 87.814 95.95 87.6 95.387 87.6 C 95.003 87.6 94.449 87.285 94.157 86.9 C 93.688 86.283 93.624 86.401 93.613 87.9 M 100.61 87.58 C 99.847 89.056 99.85 89.2 100.637 89.2 C 100.988 89.2 101.369 88.84 101.484 88.4 C 101.599 87.96 101.847 87.6 102.034 87.6 C 102.222 87.6 102.271 87.33 102.145 87 C 101.794 86.085 101.284 86.278 100.61 87.58 M 304.4 87.033 C 304.4 87.74 305.261 87.617 305.508 86.875 C 305.595 86.614 305.382 86.4 305.033 86.4 C 304.685 86.4 304.4 86.685 304.4 87.033 M 324.176 86.987 C 323.517 87.486 323.499 87.576 324.057 87.587 C 324.419 87.594 324.818 87.33 324.945 87 C 325.231 86.255 325.147 86.253 324.176 86.987 M 332.8 86.795 C 332.8 87.049 333.086 87.543 333.436 87.893 C 334.018 88.475 334.061 88.45 333.936 87.596 C 333.798 86.65 332.8 85.946 332.8 86.795 M 124.8 87.6 C 124.483 88.04 123.903 88.4 123.512 88.4 C 123.12 88.4 122.8 88.67 122.8 89 C 122.8 89.373 122.422 89.6 121.8 89.6 C 121.203 89.6 120.8 89.829 120.8 90.168 C 120.8 90.783 118.679 91.42 118.01 91.006 C 117.37 90.611 117.518 90.119 118.6 89.036 C 119.844 87.792 119.848 87.6 118.628 87.6 C 117.941 87.6 117.618 87.851 117.528 88.455 C 117.455 88.942 116.812 89.624 116.036 90.039 C 115.286 90.44 114.485 90.955 114.256 91.184 C 113.696 91.744 112.165 91.71 111.213 91.115 C 110.208 90.488 109.872 90.852 110.352 92.048 C 110.563 92.572 110.845 93.343 110.978 93.761 C 111.213 94.494 111.242 94.495 111.753 93.796 C 112.36 92.967 113.6 93.23 113.6 94.187 C 113.6 94.574 113.231 94.8 112.6 94.8 C 111.867 94.8 111.6 95.013 111.6 95.6 C 111.6 96.104 111.333 96.4 110.88 96.4 C 109.894 96.4 109.2 95.623 109.2 94.52 C 109.2 93.243 108.551 93.369 106.966 94.954 C 105.662 96.258 103.248 97.124 102.393 96.596 C 101.878 96.277 101.884 94.8 102.4 94.8 C 102.62 94.8 102.8 94.62 102.8 94.4 C 102.8 93.476 101.512 94.104 100.747 95.4 C 100.293 96.17 99.683 96.8 99.393 96.8 C 98.328 96.8 97.6 96.295 97.6 95.557 C 97.6 94.555 96.949 94.585 96.684 95.6 C 96.364 96.822 94.298 96.729 94.472 95.5 C 94.542 95.005 95.005 94.422 95.5 94.205 C 95.995 93.988 96.4 93.623 96.4 93.394 C 96.4 93.165 96.76 92.67 97.2 92.293 C 97.64 91.916 98 91.426 98 91.204 C 98 90.318 96.984 90.9 95.096 92.87 C 93.526 94.507 92.978 94.856 92.476 94.539 C 91.717 94.06 91.119 92.097 91.635 91.778 C 92.232 91.41 92.05 90.8 91.344 90.8 C 90.983 90.8 90.449 91.115 90.157 91.5 C 89.559 92.288 89.422 93.6 89.939 93.6 C 90.582 93.6 92 95.096 92 95.773 C 92 97.029 89.923 96.393 89.477 95 C 88.809 92.917 88.401 92.66 87.34 93.656 C 86.823 94.142 86.4 94.778 86.4 95.07 C 86.4 95.361 86.046 95.6 85.614 95.6 C 85.182 95.6 84.635 95.96 84.4 96.4 C 83.89 97.354 83.28 97.402 81.751 96.609 C 80.693 96.059 80.59 96.074 80.319 96.809 C 79.963 97.771 79.468 97.811 78.605 96.948 C 78.002 96.345 77.936 96.36 77.73 97.148 C 77.502 98.017 76.962 98.19 75.833 97.757 C 75.148 97.494 74.943 95.6 75.6 95.6 C 75.82 95.6 76 95.42 76 95.2 C 76 94.517 75.432 94.781 74.681 95.813 C 73.249 97.78 75.845 99.513 78.6 98.429 C 79.051 98.251 79.822 98.305 80.368 98.552 C 81.102 98.885 81.376 98.871 81.502 98.495 C 81.608 98.176 82.508 98 84.033 98 C 86.082 98 86.4 97.899 86.4 97.249 C 86.4 96.405 87.471 95.338 87.895 95.761 C 88.046 95.913 87.952 96.386 87.685 96.813 C 87.418 97.24 87.2 97.664 87.2 97.755 C 87.2 97.962 100.882 97.66 102.8 97.411 C 106.359 96.949 116.644 97.096 117.484 97.62 C 118.164 98.045 118.557 98.057 119.389 97.678 C 120.893 96.993 121.736 97.086 122.307 98 C 122.622 98.505 123.24 98.8 123.98 98.8 C 124.625 98.8 125.264 98.98 125.4 99.2 C 125.536 99.42 126.155 99.6 126.775 99.6 C 127.395 99.6 128.126 99.87 128.4 100.2 C 128.674 100.53 129.232 100.8 129.64 100.8 C 130.477 100.8 134.8 104.807 134.8 105.583 C 134.8 105.859 135.042 105.993 135.339 105.879 C 135.635 105.765 136.67 106.376 137.639 107.235 C 138.607 108.095 139.596 108.799 139.836 108.799 C 140.076 108.8 142.215 110.69 144.591 113 C 149.25 117.531 149.358 117.599 150.002 116.396 C 150.368 115.712 150.281 115.535 149.416 115.206 C 148.169 114.732 148.087 113.524 149.206 112.102 C 150.091 110.976 149.97 110.395 149.015 111.188 C 148.291 111.788 147.2 111.459 147.2 110.64 C 147.2 110.319 146.795 109.998 146.3 109.928 C 145.805 109.858 145.4 109.53 145.4 109.2 C 145.4 108.212 142.63 105.73 140.5 104.809 C 139.211 104.251 139.363 103.735 141.5 101.413 C 145.812 96.728 145.872 96.068 141.625 100.03 C 138.562 102.888 137.324 103.381 136.152 102.209 C 135.386 101.443 135.914 100.411 137.815 98.961 C 138.756 98.243 139.148 97.667 139.004 97.213 C 138.886 96.84 139.153 96.116 139.597 95.603 C 140.041 95.091 140.296 94.566 140.163 94.436 C 139.827 94.109 137.2 97.198 137.2 97.92 C 137.2 98.708 135.152 100.442 134.4 100.292 C 133.957 100.203 133.817 99.679 133.865 98.286 C 133.9 97.249 133.765 96.4 133.565 96.4 C 133.364 96.4 133.2 96.856 133.2 97.414 C 133.2 98.65 132.568 98.392 130.299 96.23 C 129.474 95.443 128.619 94.8 128.399 94.8 C 128.18 94.8 128 94.626 128 94.413 C 128 94.199 127.738 94.126 127.418 94.249 C 127.098 94.371 126.402 94.051 125.872 93.536 C 124.655 92.353 123.384 91.6 122.605 91.6 C 122.272 91.6 122 91.42 122 91.2 C 122 90.98 122.26 90.8 122.577 90.8 C 122.895 90.8 123.466 90.273 123.847 89.629 C 124.227 88.984 124.868 88.371 125.269 88.266 C 125.671 88.161 126 87.788 126 87.437 C 126 86.568 125.494 86.637 124.8 87.6 M 261.378 87.235 C 261.231 87.474 261.31 87.87 261.555 88.115 C 261.882 88.442 262 88.326 262 87.68 C 262 86.714 261.792 86.565 261.378 87.235 M 296 88.2 C 295.592 88.691 295.62 88.8 296.151 88.8 C 296.508 88.8 296.8 88.53 296.8 88.2 C 296.8 87.87 296.732 87.6 296.649 87.6 C 296.566 87.6 296.274 87.87 296 88.2 M 313.821 88.616 C 313.084 89.249 312.89 89.6 313.276 89.6 C 313.91 89.6 315.457 88.123 315.147 87.814 C 315.047 87.714 314.45 88.075 313.821 88.616 M 320.8 88 C 320.8 88.22 321.07 88.4 321.4 88.4 C 321.73 88.4 322 88.22 322 88 C 322 87.78 321.73 87.6 321.4 87.6 C 321.07 87.6 320.8 87.78 320.8 88 M 127.3 88.265 C 127.025 88.376 126.8 88.722 126.8 89.033 C 126.8 89.345 126.62 89.6 126.4 89.6 C 126.18 89.6 126 90.05 126 90.6 C 126 91.15 126.18 91.6 126.4 91.6 C 126.62 91.6 126.8 91.321 126.8 90.98 C 126.8 90.639 127.075 89.829 127.41 89.18 C 127.746 88.531 127.971 88.014 127.91 88.032 C 127.85 88.049 127.575 88.154 127.3 88.265 M 31.316 88.925 C 31.777 90.127 31.13 91.6 30.141 91.6 C 28.96 91.6 28.635 90.885 29.174 89.469 C 29.604 88.338 30.959 87.994 31.316 88.925 M 105.08 88.654 C 104.925 88.808 105.091 89.259 105.449 89.654 C 105.816 90.059 106.007 90.729 105.888 91.186 C 105.645 92.115 106.056 92.507 106.924 92.174 C 107.882 91.806 108.033 90.446 107.168 89.983 C 106.75 89.759 106.451 89.367 106.504 89.112 C 106.613 88.583 105.506 88.227 105.08 88.654 M 108.25 89.013 C 107.82 90.136 107.968 90.4 109.028 90.4 C 109.864 90.4 110.032 90.233 109.928 89.504 C 109.775 88.433 108.604 88.09 108.25 89.013 M 243.846 89.1 C 243.711 89.485 243.495 90.025 243.366 90.3 C 243.238 90.575 243.307 90.8 243.52 90.8 C 243.733 90.8 244.018 90.485 244.154 90.1 C 244.289 89.715 244.505 89.175 244.634 88.9 C 244.762 88.625 244.693 88.4 244.48 88.4 C 244.267 88.4 243.982 88.715 243.846 89.1 M 247.764 88.95 C 247.429 89.821 247.663 90.055 248.408 89.595 C 248.866 89.312 248.888 89.128 248.51 88.75 C 248.132 88.372 247.969 88.415 247.764 88.95 M 309.2 89 C 309.2 89.345 309.561 89.6 310.049 89.6 C 310.758 89.6 310.816 89.501 310.4 89 C 310.126 88.67 309.744 88.4 309.551 88.4 C 309.358 88.4 309.2 88.67 309.2 89 M 129.3 90.63 C 127.593 92.468 127.06 93.782 128.2 93.345 C 128.53 93.218 128.8 92.962 128.8 92.775 C 128.8 92.589 129.205 92.015 129.7 91.5 C 131.756 89.361 132.144 88.8 131.562 88.8 C 131.253 88.8 130.235 89.624 129.3 90.63 M 262.4 88.951 C 262.4 89.034 262.67 89.326 263 89.6 C 263.491 90.008 263.6 89.98 263.6 89.449 C 263.6 89.092 263.33 88.8 263 88.8 C 262.67 88.8 262.4 88.868 262.4 88.951 M 257.867 89.467 C 257.379 89.954 257.591 90.8 258.2 90.8 C 258.533 90.8 258.8 90.444 258.8 90 C 258.8 89.203 258.374 88.96 257.867 89.467 M 333.319 89.742 C 333.055 89.994 332.548 90.443 332.193 90.74 C 331.838 91.038 331.62 91.353 331.709 91.442 C 331.961 91.695 334.4 90.383 334.4 89.994 C 334.4 89.399 333.822 89.263 333.319 89.742 M 36.65 89.92 C 36.486 90.184 35.823 90.4 35.176 90.4 C 34.397 90.4 34 90.603 34 91 C 34 91.394 34.395 91.6 35.151 91.6 C 36.379 91.6 37.382 90.747 37.111 89.933 C 36.984 89.552 36.879 89.549 36.65 89.92 M 98.4 90.2 C 98.4 90.53 98.58 90.8 98.8 90.8 C 99.02 90.8 99.2 90.53 99.2 90.2 C 99.2 89.87 99.02 89.6 98.8 89.6 C 98.58 89.6 98.4 89.87 98.4 90.2 M 101.606 90.3 C 101.625 91.247 103.6 92.403 103.6 91.467 C 103.6 91.188 103.384 90.744 103.12 90.48 C 102.588 89.948 101.597 89.83 101.606 90.3 M 133.657 90.363 C 133.297 90.587 133.257 90.788 133.54 90.963 C 133.774 91.107 133.864 91.49 133.74 91.813 C 133.47 92.515 135 92.648 135.425 91.96 C 135.826 91.31 134.321 89.951 133.657 90.363 M 137.85 90.319 C 137.742 90.495 137.821 90.9 138.026 91.219 C 138.398 91.797 139.176 91.185 139.194 90.3 C 139.202 89.899 138.1 89.915 137.85 90.319 M 305.883 90.251 C 305.588 90.546 306.712 92.868 307.356 93.294 C 308.401 93.985 308.8 93.573 308.8 91.8 C 308.8 90.054 307.023 89.111 305.883 90.251 M 248.46 93.073 C 247.283 94.272 246.415 95.348 246.53 95.464 C 246.646 95.58 247.75 94.682 248.983 93.469 C 250.216 92.255 251.084 91.179 250.912 91.078 C 250.741 90.976 249.637 91.874 248.46 93.073 M 76.8 91.904 C 76.8 92.071 77.152 92.427 77.581 92.696 C 78.397 93.205 79.063 92.75 78.6 92 C 78.313 91.535 76.8 91.454 76.8 91.904 M 100.012 92.137 C 100.005 92.543 99.64 92.969 99.2 93.084 C 98.188 93.349 98.154 94 99.151 94 C 100.271 94 100.957 93.003 100.444 92.121 C 100.042 91.431 100.024 91.431 100.012 92.137 M 252.995 92.683 C 252.558 93.278 251.903 94.043 251.54 94.383 C 249.96 95.862 248.495 97.077 247.196 97.985 C 246.428 98.522 245.71 99.065 245.6 99.191 C 245.49 99.317 244.59 100.043 243.6 100.805 C 241.114 102.716 240.657 103.194 241.007 103.519 C 241.173 103.674 241.39 103.575 241.488 103.3 C 241.586 103.025 241.844 102.8 242.06 102.8 C 242.277 102.8 243.477 101.979 244.727 100.975 C 247.639 98.638 247.851 98.47 250.001 96.817 C 252.686 94.752 254 93.302 254 92.404 C 254 91.372 253.946 91.387 252.995 92.683 M 80.8 92.6 C 80.8 92.93 80.961 93.2 81.157 93.2 C 81.354 93.2 81.618 92.93 81.745 92.6 C 81.885 92.235 81.745 92 81.387 92 C 81.064 92 80.8 92.27 80.8 92.6 M 44.585 92.824 C 44.427 93.08 44.546 93.447 44.849 93.639 C 45.694 94.174 46.072 94.067 45.929 93.333 C 45.768 92.503 44.97 92.201 44.585 92.824 M 73.384 92.827 C 73.239 93.061 73.22 93.353 73.343 93.476 C 73.672 93.805 74.8 93.291 74.8 92.813 C 74.8 92.27 73.721 92.28 73.384 92.827 M 103.867 92.667 C 103.38 93.154 103.59 93.801 104.4 94.307 C 105.133 94.765 105.2 94.707 105.2 93.603 C 105.2 92.472 104.531 92.002 103.867 92.667 M 131.28 92.88 C 130.631 93.529 130.675 94.267 131.38 94.537 C 132.14 94.829 133.814 93.47 133.44 92.865 C 133.067 92.261 131.891 92.269 131.28 92.88 M 244.4 92.987 C 244.4 93.345 244.635 93.485 245 93.345 C 245.33 93.218 245.6 92.954 245.6 92.757 C 245.6 92.561 245.33 92.4 245 92.4 C 244.67 92.4 244.4 92.664 244.4 92.987 M 41.993 93.4 C 41.952 95.148 39.194 96.571 38.698 95.1 C 38.57 94.719 38.356 94.743 37.8 95.2 C 37.244 95.657 37.03 95.681 36.902 95.3 C 36.809 95.025 36.298 94.8 35.767 94.8 C 35.235 94.8 34.8 94.62 34.8 94.4 C 34.8 93.663 33.657 93.99 33.4 94.8 C 33.142 95.613 31.6 95.944 31.6 95.186 C 31.6 94.909 31.326 94.919 30.774 95.214 C 30.162 95.542 29.801 95.533 29.374 95.179 C 28.966 94.84 28.8 94.832 28.8 95.151 C 28.8 95.398 28.429 95.6 27.976 95.6 C 27.523 95.6 27.264 95.78 27.4 96 C 27.536 96.22 28.697 96.4 29.981 96.4 C 31.767 96.4 32.373 96.553 32.564 97.051 C 33.05 98.317 32.046 98.8 28.927 98.8 C 25.394 98.8 25.347 99.376 28.85 99.742 C 30.677 99.933 31.472 100.21 31.885 100.8 C 32.624 101.855 33.12 101.809 34.071 100.6 C 34.59 99.94 35.256 99.6 36.029 99.6 C 36.911 99.6 37.2 99.413 37.2 98.843 C 37.2 98.049 37.936 97.6 39.237 97.6 C 39.661 97.6 40.316 97.24 40.693 96.8 C 41.07 96.36 41.698 96 42.089 96 C 42.599 96 42.798 95.69 42.794 94.9 C 42.786 93.554 42.023 92.124 41.993 93.4 M 38.877 93.63 C 38.956 93.867 39.151 94.047 39.31 94.03 C 39.47 94.014 39.87 94 40.2 94 C 40.53 94 40.8 93.82 40.8 93.6 C 40.8 93.38 40.335 93.2 39.767 93.2 C 39.198 93.2 38.798 93.394 38.877 93.63 M 60.146 94.861 C 60.514 95.838 60.627 95.909 60.863 95.31 C 61.292 94.226 61.258 94.108 60.454 93.898 C 59.785 93.723 59.753 93.822 60.146 94.861 M 64.8 94.2 C 64.8 94.53 65.07 94.8 65.4 94.8 C 65.73 94.8 66 94.53 66 94.2 C 66 93.87 65.73 93.6 65.4 93.6 C 65.07 93.6 64.8 93.87 64.8 94.2 M 135.625 94.573 C 135.124 95.106 134.789 95.767 134.88 96.041 C 134.978 96.334 135.425 96.007 135.967 95.247 C 137.091 93.668 136.875 93.243 135.625 94.573 M 146.675 94.317 C 145.842 95.238 145.82 95.6 146.6 95.6 C 146.93 95.6 147.2 95.42 147.2 95.2 C 147.2 94.98 147.575 94.8 148.033 94.8 C 148.522 94.8 148.798 94.593 148.7 94.3 C 148.434 93.499 147.408 93.508 146.675 94.317 M 56.304 94.991 C 56.043 96.358 56.381 96.544 57.268 95.522 C 57.848 94.853 57.903 94.585 57.509 94.335 C 56.705 93.825 56.506 93.933 56.304 94.991 M 79.2 95 C 79.2 95.33 79.464 95.6 79.787 95.6 C 80.145 95.6 80.285 95.365 80.145 95 C 80.018 94.67 79.754 94.4 79.557 94.4 C 79.361 94.4 79.2 94.67 79.2 95 M 151.017 94.901 C 151.165 95.285 151.446 95.6 151.643 95.6 C 151.839 95.6 152 95.859 152 96.176 C 152 96.873 152.66 97.349 152.958 96.868 C 153.076 96.678 152.626 96 151.96 95.362 C 151.192 94.626 150.847 94.457 151.017 94.901 M 71.577 98.8 C 73.236 98.8 72.813 103.722 71.137 103.921 C 68.818 104.196 68.243 100.499 70.144 97.53 L 70.995 96.2 L 71.123 97.5 C 71.193 98.215 71.397 98.8 71.577 98.8 M 17.2 98.367 C 17.2 99.008 17.065 99.609 16.9 99.701 C 16.735 99.793 16.851 99.804 17.158 99.725 C 18.13 99.474 19.2 100.831 19.2 102.315 C 19.2 103.846 21.444 106.426 22.728 106.372 C 23.27 106.349 23.245 106.277 22.6 106 C 21.813 105.662 21.814 105.656 22.633 105.628 C 24.041 105.581 24.024 105.164 22.54 103.353 C 20.908 101.361 20.981 100.4 22.764 100.4 C 23.418 100.4 24.064 100.22 24.2 100 C 24.349 99.759 23.812 99.6 22.848 99.6 C 21.63 99.6 20.936 99.314 19.936 98.4 C 18.213 96.826 17.2 96.814 17.2 98.367 M 238.667 97.467 C 238.068 98.066 238.373 98.92 239 98.4 C 239.33 98.126 239.6 97.744 239.6 97.551 C 239.6 97.137 239.047 97.087 238.667 97.467 M 148.557 98.167 C 148.424 98.515 147.884 98.8 147.357 98.8 C 146.667 98.8 146.4 99.023 146.4 99.6 C 146.4 100.04 146.552 100.4 146.738 100.4 C 146.924 100.4 147.402 100.04 147.8 99.6 C 148.198 99.16 148.871 98.8 149.295 98.8 C 149.72 98.8 149.995 98.586 149.908 98.325 C 149.657 97.571 148.824 97.473 148.557 98.167 M 153.848 97.922 C 153.554 98.399 154.54 99.464 155.583 99.795 C 156.506 100.087 156.523 100.066 155.881 99.424 C 155.507 99.049 155.2 98.595 155.2 98.414 C 155.2 97.972 154.072 97.561 153.848 97.922 M 60.244 98.629 C 60.076 99.068 60.204 99.219 60.668 99.129 C 61.034 99.058 61.409 98.775 61.5 98.5 C 61.745 97.765 60.528 97.89 60.244 98.629 M 235.398 98.803 C 235.261 99.024 235.438 99.317 235.792 99.452 C 236.558 99.746 236.985 99.422 236.616 98.827 C 236.284 98.289 235.722 98.278 235.398 98.803 M 42.8 100.4 C 42.8 100.84 42.639 101.2 42.443 101.2 C 41.993 101.2 41.574 100.16 41.894 99.839 C 42.376 99.358 42.8 99.62 42.8 100.4 M 296.9 100.486 C 297.756 100.904 297.828 102 297 102 C 296.604 102 296.4 102.396 296.4 103.163 C 296.4 104.128 296.536 104.29 297.2 104.116 C 297.713 103.982 297.998 104.103 297.994 104.453 C 297.974 106.193 294.203 106.986 293.592 105.378 C 292.666 102.943 288.4 100.496 288.4 102.4 C 288.4 102.62 287.956 102.8 287.414 102.8 C 286.851 102.8 286.252 103.13 286.017 103.569 C 285.79 103.992 285.299 104.643 284.926 105.017 C 282.89 107.053 284.932 111.827 287.947 112.079 C 289.141 112.178 289.379 112.343 289.284 113 C 289.077 114.427 288.274 115.616 287.362 115.845 C 286.428 116.08 284.098 118.4 284.797 118.4 C 285.019 118.4 285.2 118.773 285.2 119.229 C 285.2 120.289 283.873 120.121 283.664 119.035 C 283.583 118.619 283.176 117.912 282.759 117.464 C 282.33 117.004 282 116.072 282 115.325 C 282 114.596 281.82 114 281.6 114 C 280.046 114 282.342 104.317 284.05 103.667 C 284.536 103.482 284.491 102 284 102 C 283.444 102 283.499 101.061 284.089 100.471 C 284.657 99.903 295.734 99.916 296.9 100.486 M 301 100.8 C 301 101.124 300.685 101.45 300.3 101.524 C 299.809 101.618 299.6 101.402 299.6 100.8 C 299.6 100.198 299.809 99.982 300.3 100.076 C 300.685 100.15 301 100.476 301 100.8 M 150.8 101.25 C 150.03 101.716 149.34 102.255 149.267 102.448 C 149.193 102.642 148.698 102.8 148.167 102.8 C 147.068 102.8 146.868 103.498 147.858 103.878 C 148.248 104.027 148.714 103.859 149.002 103.465 C 149.269 103.099 149.738 102.793 150.044 102.784 C 150.806 102.761 153.523 100.4 152.785 100.401 C 152.463 100.402 151.57 100.784 150.8 101.25 M 35.6 101.6 C 35.6 101.82 35.24 102 34.8 102 C 34.36 102 34 102.18 34 102.4 C 34 102.957 35.339 102.901 35.92 102.32 C 36.504 101.736 36.542 101.2 36 101.2 C 35.78 101.2 35.6 101.38 35.6 101.6 M 316.256 101.983 C 316.506 102.304 316.623 102.795 316.516 103.074 C 316.409 103.353 316.78 103.79 317.34 104.046 C 318.565 104.603 318.369 110.38 317.054 112.485 C 315.902 114.33 311.6 112.735 311.6 110.463 C 311.6 105.909 309.887 102.8 307.377 102.8 C 306.795 102.8 306.585 101.948 307.053 101.48 C 307.6 100.933 315.785 101.381 316.256 101.983 M 157.8 102.4 C 157.664 102.62 156.859 102.8 156.012 102.8 C 154.508 102.8 149.2 107.171 149.2 108.409 C 149.2 109.379 151.984 107.616 152.013 106.628 C 152.032 105.967 153.707 104.899 156.166 103.978 C 157.445 103.5 158.4 102.898 158.4 102.571 C 158.4 101.904 158.15 101.833 157.8 102.4 M 15.606 103.537 C 15.623 104.265 16.39 104.89 16.985 104.661 C 17.351 104.521 17.552 104.246 17.432 104.051 C 17.162 103.615 15.598 103.175 15.606 103.537 M 290.609 103.906 C 292.684 105.396 292.838 108.187 290.96 110.253 C 289.696 111.644 286.577 110.504 286.008 108.444 C 285.268 105.764 288.608 102.469 290.609 103.906 M 157.636 106.202 C 155.557 107.34 154.951 107.884 155.332 108.265 C 155.485 108.418 156.14 108.151 156.789 107.672 C 157.437 107.192 158.168 106.8 158.412 106.8 C 158.875 106.8 160 105.828 160 105.429 C 160 105.029 159.447 105.21 157.636 106.202 M 146 106.157 C 146 106.464 146.27 106.818 146.6 106.945 C 147.008 107.101 147.2 106.923 147.2 106.387 C 147.2 105.954 146.93 105.6 146.6 105.6 C 146.27 105.6 146 105.851 146 106.157 M 230.268 106.429 C 229.869 106.895 229.637 107.37 229.752 107.486 C 230.062 107.795 231.287 106.461 231.129 105.987 C 231.055 105.764 230.667 105.963 230.268 106.429 M 114.074 107.788 C 115.354 108.975 116.047 112.793 115.222 114.114 C 114.872 114.674 114.857 115.017 115.167 115.327 C 115.711 115.871 115.735 117.2 115.2 117.2 C 114.98 117.2 114.8 117.434 114.8 117.72 C 114.8 118.642 113.818 120.395 113.188 120.6 C 112.852 120.709 112.372 121.338 112.123 121.999 C 111.873 122.66 111.384 123.2 111.035 123.2 C 110.229 123.2 110.202 124.239 111 124.545 C 111.33 124.671 111.6 124.601 111.6 124.387 C 111.6 124.174 111.876 124 112.213 124 C 112.551 124 113.199 123.37 113.653 122.6 C 114.107 121.83 114.722 121.2 115.02 121.2 C 115.317 121.2 115.727 120.902 115.931 120.538 C 116.18 120.092 116.545 119.971 117.05 120.167 C 117.76 120.442 117.763 120.485 117.1 120.973 C 116.715 121.256 116.4 121.69 116.4 121.937 C 116.4 122.343 115.15 123.822 112.699 126.314 C 110.841 128.203 104.171 131.2 103.183 130.59 C 102.652 130.261 102 126.517 102 123.791 C 102 120.929 102.878 120 105.58 120 C 106.251 120 106.8 119.82 106.8 119.6 C 106.8 119.38 107.025 119.2 107.301 119.2 C 110.044 119.2 113.134 112.702 111.953 109.418 C 110.966 106.673 112.008 105.873 114.074 107.788 M 89.365 109.074 C 91.382 111.091 90.49 112.972 87.12 113.809 C 84.714 114.406 83.082 110.67 84.83 108.564 C 85.645 107.582 88.155 107.864 89.365 109.074 M 99.557 111.973 C 99.498 114.178 99.573 116.107 99.725 116.258 C 100.196 116.73 100.027 118.183 99.396 119.085 C 99.013 119.631 98.94 120.039 99.196 120.197 C 99.994 120.691 99.607 121.6 98.6 121.6 C 97.912 121.6 97.6 121.38 97.6 120.896 C 97.6 120.509 97.233 119.963 96.785 119.684 C 95.75 119.037 95.071 117.419 95.031 115.504 C 95.014 114.681 94.82 114.051 94.6 114.104 C 94.38 114.157 94.225 114.425 94.256 114.7 C 94.286 114.975 94.151 115.2 93.956 115.2 C 93.293 115.2 93.613 117.794 94.4 118.8 C 95.707 120.47 95.233 121.576 93.817 120.16 C 90.001 116.344 92.763 108.371 98.008 108.062 L 99.665 107.964 L 99.557 111.973 M 162.3 108.629 C 161.152 109.251 160.831 110 161.711 110 C 162.387 110 164 108.856 164 108.377 C 164 107.865 163.599 107.924 162.3 108.629 M 297.725 108.3 C 297.82 108.465 297.768 110.76 297.61 113.4 C 297.451 116.04 297.464 118.386 297.638 118.613 C 297.812 118.841 297.83 119.214 297.677 119.443 C 296.76 120.819 293.327 120.085 292.939 118.43 C 292.806 117.863 292.342 116.808 291.907 116.085 C 290.89 114.393 291.185 112.685 292.844 110.673 C 294.378 108.812 297.224 107.428 297.725 108.3 M 153.857 109.4 C 153.527 109.73 152.614 110 151.829 110 C 150.419 110 149.903 110.524 150.925 110.916 C 151.628 111.186 153.6 110.791 153.6 110.38 C 153.6 110.201 153.96 109.94 154.4 109.8 C 154.84 109.66 155.2 109.378 155.2 109.173 C 155.2 108.612 154.533 108.724 153.857 109.4 M 159.1 109.115 C 158.715 109.194 158.4 109.425 158.4 109.629 C 158.4 109.833 158.164 110 157.875 110 C 157.586 110 156.832 110.54 156.2 111.2 C 155.458 111.974 154.653 112.4 153.93 112.4 C 152.725 112.4 151.2 113.455 151.2 114.289 C 151.2 114.57 150.99 114.8 150.733 114.8 C 150.477 114.8 150.386 114.919 150.531 115.064 C 150.676 115.21 151.171 114.988 151.631 114.572 C 152.171 114.083 153.013 113.83 154.011 113.856 C 154.926 113.88 155.634 113.689 155.75 113.386 C 155.858 113.105 156.498 112.754 157.173 112.606 C 157.848 112.458 158.4 112.137 158.4 111.894 C 158.4 111.651 158.779 111.048 159.243 110.554 C 160.199 109.537 160.136 108.902 159.1 109.115 M 83.236 114.05 C 83.735 114.751 84.503 115.194 85.496 115.355 C 87.357 115.657 87.603 115.67 88.6 115.52 C 89.634 115.365 89.948 117.367 89.042 118.338 C 88.702 118.702 87.764 119.693 86.959 120.54 L 85.494 122.08 L 84.56 120.94 C 84.046 120.313 83.692 119.609 83.772 119.375 C 83.852 119.142 83.58 118.512 83.167 117.975 C 82.755 117.439 82.414 116.459 82.409 115.797 C 82.404 115.136 82.225 113.985 82.012 113.24 C 81.798 112.496 81.753 111.687 81.911 111.443 C 82.079 111.184 82.258 111.414 82.34 111.995 C 82.417 112.542 82.82 113.467 83.236 114.05 M 67.919 113.709 C 69.172 114.01 69.763 113.997 70.099 113.661 C 70.447 113.313 70.025 113.212 68.38 113.248 L 66.2 113.296 L 67.919 113.709 M 313.343 114.2 C 313.673 114.53 314.394 114.8 314.944 114.8 C 315.994 114.8 316.16 115.087 316.623 117.7 C 317.036 120.027 316.296 119.774 314.228 116.879 L 313.284 115.558 L 312.415 116.779 C 311.937 117.451 311.319 118 311.042 118 C 310.278 118 308.637 119.879 309.229 120.076 C 309.497 120.166 309.755 121.04 309.801 122.019 C 309.847 122.999 310.021 124.301 310.189 124.913 C 310.761 127.007 306.217 129.381 301.615 129.394 L 299.4 129.4 L 299.315 128 C 299.268 127.23 299.111 125.505 298.965 124.166 C 298.585 120.662 299.038 120 301.82 120 C 303.025 120 304.323 119.836 304.705 119.636 C 305.087 119.436 305.94 119.022 306.6 118.716 C 309.27 117.477 310.373 116.561 310.944 115.106 C 311.571 113.511 312.357 113.214 313.343 114.2 M 162.977 115.238 C 162.828 115.478 162.238 115.586 161.665 115.476 C 160.355 115.226 157.607 116.73 157.603 117.7 C 157.601 118.085 157.78 118.4 158 118.4 C 158.22 118.4 158.4 118.242 158.4 118.049 C 158.4 117.855 158.94 117.473 159.6 117.2 C 160.26 116.927 160.8 116.532 160.8 116.323 C 160.8 116.114 161.205 115.976 161.7 116.016 C 163.238 116.14 163.82 116.02 164.624 115.413 C 165.369 114.849 165.356 114.825 164.324 114.813 C 163.732 114.806 163.125 114.997 162.977 115.238 M 336 115.6 C 335.973 117.936 334.466 121.161 332.52 123.052 C 329.672 125.817 321.939 131.2 320.814 131.2 C 320.637 131.2 319.976 131.469 319.346 131.798 C 318.716 132.126 317.831 132.396 317.38 132.398 C 316.929 132.399 316.37 132.59 316.137 132.823 C 314.73 134.23 302.131 134.971 296.246 133.994 C 284.919 132.112 280.466 131.218 276.601 130.047 C 275.062 129.581 273.228 129.2 272.525 129.2 C 271.822 129.2 271.136 129.02 271 128.8 C 270.864 128.58 269.948 128.4 268.964 128.4 C 267.73 128.4 267.102 128.211 266.941 127.791 C 266.765 127.332 266.365 127.245 265.329 127.44 C 264.158 127.659 263.918 127.575 263.736 126.876 C 263.55 126.167 263.388 126.114 262.562 126.49 C 261.783 126.845 261.28 126.761 259.885 126.044 C 258.941 125.558 257.879 125.272 257.525 125.407 C 257.145 125.553 256.578 125.33 256.141 124.862 C 254.899 123.535 252.56 123.331 251.085 124.422 C 248.632 126.236 244 125.313 244 123.011 C 244 122.049 246.135 120 247.138 120 C 247.392 120 247.6 119.82 247.6 119.6 C 247.6 118.59 245.821 119.387 243.809 121.298 C 241.15 123.824 241.143 123.907 243.455 125.311 C 245.208 126.375 245.492 126.42 250.143 126.369 C 254.62 126.319 257.96 126.767 259.695 127.647 C 260.077 127.841 260.649 128 260.968 128 C 261.286 128 263.763 128.648 266.473 129.439 C 269.183 130.231 272.03 131.027 272.8 131.208 C 276.479 132.075 276.784 132.294 276.794 134.071 C 276.802 135.409 277.915 136.645 278.544 136.016 C 278.859 135.701 278.843 135.361 278.49 134.795 C 277.465 133.155 277.842 132.338 279.5 132.605 C 282.724 133.123 282.82 133.179 283.605 135.013 C 284.467 137.023 285.432 137.462 285.076 135.681 C 284.727 133.933 285.258 133.403 286.817 133.946 C 287.533 134.196 288.777 134.4 289.58 134.4 C 290.383 134.4 291.211 134.567 291.42 134.771 C 292.137 135.471 308.915 136.204 309.8 135.575 C 310.02 135.418 311.37 135.315 312.8 135.345 L 315.4 135.4 L 315.6 136.8 C 315.813 138.288 317.6 139.207 317.6 137.828 C 317.6 137.483 317.42 137.2 317.2 137.2 C 316.98 137.2 316.8 136.84 316.8 136.4 C 316.8 135.96 316.62 135.6 316.4 135.6 C 315.429 135.6 316.042 134.006 317.1 133.78 C 317.705 133.651 318.613 133.377 319.119 133.172 C 320.563 132.587 320.744 132.703 320.876 134.3 C 320.976 135.505 321.177 135.825 321.9 135.928 C 322.962 136.079 323.076 135.367 322.151 134.346 C 321.298 133.403 321.695 132.481 323.083 132.188 C 323.697 132.058 324.513 131.783 324.895 131.576 C 325.277 131.369 325.941 131.2 326.371 131.2 C 326.801 131.2 327.264 131.02 327.4 130.8 C 327.917 129.964 328.806 130.466 330.062 132.3 C 331.707 134.705 332.199 135.2 332.938 135.2 C 333.265 135.2 333.616 135.425 333.717 135.7 C 333.863 136.1 334.006 136.1 334.43 135.7 C 335.261 134.916 335.962 135.11 336.236 136.2 C 336.513 137.304 336.989 137.483 337.48 136.67 C 337.656 136.378 338.115 136.024 338.5 135.882 C 339.026 135.689 339.2 135.174 339.2 133.813 C 339.2 131.79 338.735 131.516 337.779 132.976 C 337.427 133.513 336.901 133.86 336.61 133.749 C 336.319 133.637 335.962 133.738 335.817 133.973 C 335.014 135.272 331.677 133.307 332.231 131.862 C 332.371 131.498 332.646 131.2 332.843 131.2 C 333.412 131.2 333.258 130.327 332.551 129.546 C 331.728 128.636 332.08 127.702 333.442 127.184 C 334.838 126.653 338.8 122.48 338.8 121.541 C 338.8 120.284 341.073 118.52 343.519 117.878 L 345.8 117.279 L 342.967 117.24 C 341.408 117.218 340.009 117.076 339.857 116.924 C 339.705 116.772 339.007 116.637 338.305 116.624 C 337.359 116.606 336.897 116.341 336.52 115.6 L 336.012 114.6 L 336 115.6 M 152.629 116.48 C 152.151 117.162 152.124 117.431 152.506 117.674 C 153.244 118.143 153.481 118.072 153.754 117.3 C 153.889 116.915 154.105 116.375 154.234 116.1 C 154.638 115.232 153.277 115.555 152.629 116.48 M 118.8 117.2 C 118.8 117.98 118.376 118.242 117.894 117.761 C 117.574 117.44 117.993 116.4 118.443 116.4 C 118.639 116.4 118.8 116.76 118.8 117.2 M 86 118.6 C 85.584 119.101 85.642 119.2 86.351 119.2 C 86.839 119.2 87.2 118.945 87.2 118.6 C 87.2 118.27 87.042 118 86.849 118 C 86.656 118 86.274 118.27 86 118.6 M 153.666 118.894 C 153.012 119.548 153.086 120.671 153.8 120.945 C 154.13 121.071 154.4 121.438 154.4 121.759 C 154.4 122.08 154.13 122.613 153.8 122.943 C 153.47 123.273 153.2 123.736 153.2 123.971 C 153.2 124.637 154.285 124.476 154.556 123.77 C 154.773 123.205 154.867 123.21 155.472 123.815 C 156.459 124.802 157.54 123.439 156.597 122.396 C 156.269 122.034 156 121.481 156 121.169 C 155.999 120.134 154.189 118.371 153.666 118.894 M 314.889 120.427 C 315.102 121.875 314.808 121.904 313.631 120.549 C 312.941 119.756 312.841 119.422 313.222 119.186 C 314.043 118.679 314.705 119.172 314.889 120.427 M 227.812 121.4 C 227.956 122.72 228.308 124.07 228.595 124.4 C 228.883 124.73 229.205 125.36 229.312 125.8 C 229.419 126.24 229.528 125.395 229.554 123.922 C 229.594 121.573 229.474 121.107 228.576 120.122 L 227.552 119 L 227.812 121.4 M 312.121 119.795 C 312.165 120.012 311.885 120.25 311.5 120.324 C 311.062 120.408 310.8 120.212 310.8 119.8 C 310.8 119.104 311.982 119.099 312.121 119.795 M 62.1 119.876 C 62.485 119.976 63.115 119.976 63.5 119.876 C 63.885 119.775 63.57 119.693 62.8 119.693 C 62.03 119.693 61.715 119.775 62.1 119.876 M 90.4 121.354 C 90.4 122.021 88.701 123.2 87.739 123.2 C 87.19 123.2 87.283 122.957 88.2 122 C 89.421 120.726 90.4 120.438 90.4 121.354 M 312.8 122.009 C 312.8 122.408 313.012 122.804 313.272 122.891 C 313.579 122.993 313.627 123.319 313.411 123.824 C 313.227 124.251 313.06 124.855 313.039 125.166 C 313.017 125.477 312.775 125.807 312.5 125.899 C 311.686 126.172 311.489 124.941 312.179 123.889 C 312.75 123.016 312.753 122.859 312.209 122.407 C 311.417 121.75 311.411 120.752 312.2 121.055 C 312.53 121.182 312.8 121.611 312.8 122.009 M 55.6 122.52 C 55.6 122.806 55.792 123.232 56.026 123.466 C 56.661 124.101 55.379 125.2 54.004 125.2 C 52.358 125.2 51.6 124.817 51.6 123.984 C 51.6 123.583 51.226 123.135 50.77 122.99 C 49.67 122.641 49.416 122.959 50.181 123.724 C 50.521 124.064 50.8 124.921 50.8 125.628 C 50.8 126.535 51.138 127.221 51.949 127.957 C 53.569 129.427 54.905 130.4 55.303 130.4 C 55.49 130.4 56.219 130.939 56.922 131.598 C 57.625 132.257 58.409 132.797 58.664 132.798 C 58.92 132.799 59.583 133.34 60.139 134 C 60.694 134.66 61.385 135.204 61.674 135.209 C 61.963 135.214 62.65 135.57 63.2 136 C 63.75 136.43 64.391 136.786 64.625 136.791 C 64.859 136.796 65.839 137.181 66.803 137.647 C 68.265 138.353 69.073 138.464 71.678 138.313 C 74.159 138.169 74.8 138.246 74.8 138.687 C 74.8 139.853 77.186 140.313 81.587 139.995 C 83.89 139.828 85.988 139.774 86.248 139.874 C 86.509 139.974 87.494 139.683 88.437 139.228 C 89.502 138.713 90.945 138.4 92.252 138.4 C 93.407 138.4 94.464 138.22 94.6 138 C 94.736 137.78 95.332 137.6 95.924 137.6 C 96.516 137.6 98.26 137.324 99.8 136.986 C 101.34 136.649 103.189 136.264 103.91 136.132 C 104.63 136 105.316 135.736 105.433 135.546 C 105.551 135.356 106.436 135.2 107.4 135.2 C 108.364 135.2 109.264 135.02 109.4 134.8 C 109.536 134.58 109.951 134.4 110.321 134.4 C 110.692 134.4 112.887 133.706 115.198 132.858 C 117.509 132.01 120.21 131.081 121.2 130.793 C 122.19 130.504 123.81 129.861 124.8 129.364 C 129.849 126.826 135.815 125.53 136.6 126.8 C 136.736 127.02 137.737 127.2 138.824 127.2 C 139.911 127.2 140.8 127.02 140.8 126.8 C 140.8 126.58 141.263 126.4 141.829 126.4 C 143.329 126.4 144.8 124.63 144.8 122.826 C 144.8 121.584 144.281 121.804 142.039 124 C 139.999 125.997 137.697 126.728 137 125.6 C 136.252 124.39 129.914 125.493 125.694 127.568 C 124.315 128.245 123.033 128.8 122.843 128.8 C 122.654 128.8 121.489 129.247 120.253 129.793 C 117.161 131.161 109.865 133.6 108.867 133.6 C 108.416 133.6 107.936 133.78 107.8 134 C 107.664 134.22 106.944 134.4 106.2 134.4 C 105.456 134.4 104.736 134.58 104.6 134.8 C 104.464 135.02 103.859 135.2 103.256 135.2 C 102.653 135.2 101.989 135.362 101.78 135.559 C 101.225 136.083 98.642 136.375 91 136.779 C 84.496 137.122 82.59 137.015 76.8 135.981 C 75.81 135.805 74.19 135.527 73.2 135.365 C 72.21 135.203 70.81 134.74 70.088 134.335 C 69.366 133.931 68.533 133.6 68.237 133.6 C 67.94 133.6 67.483 133.341 67.22 133.024 C 66.957 132.707 66.264 132.392 65.68 132.324 C 65.072 132.253 64.434 131.827 64.185 131.326 C 63.947 130.845 63.362 130.125 62.886 129.726 C 62.41 129.326 61.602 128.37 61.092 127.6 C 60.379 126.525 59.889 126.2 58.982 126.2 C 58.067 126.2 57.8 126.019 57.8 125.4 C 57.8 124.96 57.575 124.456 57.3 124.28 C 56.46 123.743 56.715 122.472 57.7 122.282 C 58.257 122.175 58.029 122.088 57.1 122.054 C 56.108 122.018 55.6 122.176 55.6 122.52 M 91.866 124.173 C 91.733 124.518 91.349 124.8 91.013 124.8 C 90.272 124.8 90.254 124.623 90.89 123.605 C 91.446 122.714 92.247 123.18 91.866 124.173 M 347.288 125.306 C 346.189 126.476 346.655 127.52 347.964 126.819 C 348.441 126.564 349.168 126.463 349.581 126.594 C 350.492 126.883 352.4 126.452 352.4 125.957 C 352.4 125.76 351.68 125.6 350.8 125.6 C 349.644 125.6 349.2 125.433 349.2 125 C 349.2 124.119 348.263 124.269 347.288 125.306 M 335.2 128.229 C 335.2 129.378 336.177 130.585 336.797 130.202 C 337.441 129.804 337.263 128.336 336.5 127.757 C 335.475 126.979 335.2 127.079 335.2 128.229 M 152.4 128.4 C 151.499 129.301 151.476 129.404 152.147 129.533 C 152.553 129.611 153.063 129.497 153.28 129.28 C 153.497 129.063 153.611 128.553 153.533 128.147 C 153.404 127.476 153.301 127.499 152.4 128.4 M 341.062 130.08 C 340.582 130.793 340.43 131.465 340.617 132.054 C 340.898 132.938 340.906 132.936 341.475 131.851 C 342.377 130.129 342.03 128.644 341.062 130.08 M 53.535 133.709 C 50.624 135.444 49.601 139.861 52.224 139.369 C 53.322 139.163 53.742 139.306 54.619 140.182 C 55.481 141.045 55.91 141.195 56.891 140.98 C 58.743 140.573 59.825 143.407 58 143.884 C 56.921 144.166 56.993 144.577 58.219 145.136 C 59.597 145.764 60 145.72 60 144.944 C 60 144.583 60.288 144.078 60.64 143.82 C 61.402 143.263 62.027 140.279 61.538 139.528 C 61.272 139.12 61.024 139.219 60.446 139.965 L 59.698 140.931 L 59.249 140.092 C 58.612 138.901 58.693 137.216 59.4 136.945 C 60.667 136.458 60.09 135.2 58.6 135.2 C 57.653 135.2 57.2 135.015 57.2 134.629 C 57.2 132.888 55.59 132.484 53.535 133.709 M 149.867 133.467 C 149.36 133.974 149.603 134.4 150.4 134.4 C 150.844 134.4 151.2 134.133 151.2 133.8 C 151.2 133.191 150.354 132.979 149.867 133.467 M 340.624 134.283 C 340.276 135.189 340.66 135.397 341.371 134.686 C 341.88 134.178 341.888 134.043 341.423 133.864 C 341.117 133.747 340.757 133.935 340.624 134.283 M 146.117 134.98 C 145.738 135.412 145.748 135.625 146.167 135.973 C 146.46 136.216 146.812 137.112 146.948 137.964 C 147.091 138.862 147.473 139.619 147.855 139.766 C 148.946 140.184 149.065 139.583 148.053 138.763 C 147.055 137.954 147.405 136.8 148.649 136.8 C 149.357 136.8 149.343 136.589 148.554 135.386 C 147.841 134.298 146.86 134.135 146.117 134.98 M 331.102 136.1 C 330.843 136.803 331.196 137.65 331.634 137.379 C 332.105 137.088 332.113 135.6 331.643 135.6 C 331.446 135.6 331.203 135.825 331.102 136.1 M 295.776 137.638 C 295.371 138.294 296.431 140 297.244 140 C 298.314 140 298.509 139.338 297.771 138.211 C 297.073 137.146 296.23 136.904 295.776 137.638 M 308.8 138.143 C 308.8 139.327 309.476 139.884 310.126 139.234 C 310.449 138.911 310.46 138.585 310.162 138.113 C 309.476 137.025 308.8 137.04 308.8 138.143 M 87.6 138.6 C 87.6 138.93 87.33 139.2 87 139.2 C 86.67 139.2 86.4 138.93 86.4 138.6 C 86.4 138.27 86.67 138 87 138 C 87.33 138 87.6 138.27 87.6 138.6 M 149.212 138.384 C 148.888 138.589 148.727 138.861 148.854 138.988 C 149.169 139.303 150.4 138.801 150.4 138.357 C 150.4 137.901 149.96 137.911 149.212 138.384 M 143.489 140.283 C 142.955 140.816 142.7 140.86 142.323 140.483 C 141.406 139.566 140.533 139.916 140.533 141.2 C 140.533 142.293 140.652 142.4 141.867 142.4 C 142.6 142.4 143.201 142.265 143.203 142.1 C 143.204 141.935 143.744 141.493 144.403 141.119 C 145.061 140.744 145.6 140.249 145.6 140.019 C 145.6 139.36 144.242 139.53 143.489 140.283 M 320.667 139.867 C 320.153 140.381 320.399 141.175 321 140.945 C 321.33 140.818 321.6 140.464 321.6 140.157 C 321.6 139.569 321.115 139.418 320.667 139.867 M 102.1 140.265 C 101.38 140.556 101.485 141.372 102.342 142.148 C 102.946 142.694 104.4 142.719 104.4 142.183 C 104.4 140.724 103.279 139.789 102.1 140.265 M 111.6 140.723 C 111.6 141.761 112.689 142.671 113.254 142.106 C 113.927 141.433 113.472 140.211 112.496 140.072 C 111.831 139.977 111.6 140.145 111.6 140.723 M 68.846 141.514 C 68.335 142.469 68.968 143.2 70.307 143.2 C 71.103 143.2 71.233 143.026 71.127 142.1 C 70.969 140.735 69.469 140.35 68.846 141.514 M 95.99 141.413 C 95.569 141.919 95.613 142.125 96.241 142.6 C 97.311 143.41 97.903 143.335 98.216 142.35 C 98.654 140.969 96.953 140.252 95.99 141.413 M 136.911 141.57 C 136.647 141.994 136.019 142.412 135.515 142.499 C 134.624 142.653 134.629 142.669 135.7 143.119 C 136.305 143.373 136.8 143.765 136.8 143.99 C 136.8 144.216 137.051 144.4 137.357 144.4 C 138.035 144.4 138.515 143.318 137.983 142.989 C 137.368 142.609 137.543 141.6 138.224 141.6 C 138.567 141.6 138.736 141.42 138.6 141.2 C 138.207 140.564 137.434 140.734 136.911 141.57 M 150.604 141.993 C 150.466 142.217 150.081 142.4 149.748 142.4 C 149.415 142.4 148.842 142.7 148.475 143.067 C 147.852 143.691 147.885 143.716 148.971 143.443 C 150.486 143.063 151.776 142.156 151.257 141.835 C 151.036 141.699 150.742 141.77 150.604 141.993 M 76.159 143.42 C 75.766 144.988 77.228 146.009 78.492 145.049 C 79.082 144.601 79.111 144.368 78.692 143.465 C 78.029 142.038 76.513 142.012 76.159 143.42 M 66.006 143.471 C 65.995 144.329 64.761 145.265 64.226 144.822 C 63.886 144.54 63.292 144.643 62.273 145.163 L 60.809 145.909 L 63.7 147.754 C 65.289 148.77 66.897 149.6 67.271 149.6 C 67.646 149.6 68.074 149.797 68.223 150.038 C 68.502 150.488 69.62 150.397 73.6 149.6 C 74.81 149.358 76.223 149.151 76.74 149.14 C 77.676 149.12 79.2 147.936 79.2 147.228 C 79.2 147.023 79.605 146.798 80.1 146.728 C 81.17 146.576 81.656 144.8 80.628 144.8 C 80.267 144.8 80 145.14 80 145.6 C 80 146.154 79.733 146.4 79.131 146.4 C 78.654 146.4 77.945 146.688 77.556 147.04 C 76.917 147.618 76.764 147.62 75.969 147.064 C 75.158 146.495 75.037 146.513 74.41 147.287 C 73.702 148.161 72.8 147.987 72.8 146.976 C 72.8 146.659 72.697 146.4 72.571 146.4 C 72.182 146.4 71.2 147.52 71.2 147.964 C 71.2 148.472 69.278 149.012 68.882 148.615 C 68.728 148.461 68.89 148.124 69.242 147.866 C 71.049 146.545 70.144 144.723 67.787 144.934 C 67.359 144.972 66.829 144.578 66.529 144 C 66.245 143.45 66.009 143.212 66.006 143.471 M 84.88 143.68 C 84.114 144.446 84.323 145.201 85.3 145.194 C 86.78 145.184 87.451 144.584 86.825 143.83 C 86.2 143.077 85.534 143.026 84.88 143.68 M 132.1 143.476 C 132.485 143.576 133.115 143.576 133.5 143.476 C 133.885 143.375 133.57 143.293 132.8 143.293 C 132.03 143.293 131.715 143.375 132.1 143.476 M 143.847 144.762 C 143.036 145.407 142.515 146.024 142.689 146.132 C 143.043 146.35 145.78 144.046 145.5 143.766 C 145.403 143.669 144.659 144.117 143.847 144.762 M 66 146 C 66 146.22 66.429 146.4 66.953 146.4 C 67.886 146.4 68.637 147.692 68.157 148.469 C 67.766 149.102 66.192 148.79 65.012 147.845 C 63.984 147.023 63.896 146.807 64.361 146.247 C 64.955 145.531 66 145.374 66 146 M 163.246 146.157 L 162.292 146.686 L 163.266 146.872 C 163.998 147.012 164.254 146.877 164.295 146.329 C 164.326 145.928 164.316 145.606 164.275 145.614 C 164.234 145.622 163.771 145.866 163.246 146.157 M 150.5 146.265 C 149.484 146.675 150.044 147.034 151.444 146.871 C 152.447 146.754 152.722 146.597 152.344 146.357 C 151.749 145.98 151.266 145.956 150.5 146.265 M 81.28 147.68 C 80.748 148.212 80.631 149.202 81.1 149.197 C 81.265 149.195 81.608 148.745 81.862 148.197 C 82.354 147.136 82.073 146.887 81.28 147.68" stroke-linecap="round"/>
  </g>
</svg>