<?xml version="1.0" encoding="utf-8"?>
<svg
	version="1.1"
	xmlns="http://www.w3.org/2000/svg"
	xmlns:xlink="http://www.w3.org/1999/xlink"
	x="0%" y="0%"
	width="100%" height="100%"
	viewBox="0 0 255.0 350.0"
	enable-background="new 0 0 255.0 350.0"
	xml:space="preserve">
	<path
		fill="#FFFFFF"
		stroke="#000000"
		fill-opacity="0.000"
		stroke-opacity="1.000"
		fill-rule="nonzero"
		stroke-width="3.5700002"
		stroke-linejoin="miter"
		stroke-linecap="round"
		d="M57.96,38.27C51.66,25.68,45.36,13.09,71.26,7.30C97.17,1.50,155.28,2.51,182.17,7.30C209.07,12.09,204.75,20.66,195.48,38.27C186.22,55.88,172.00,82.52,159.99,100.22C147.98,117.92,138.18,126.69,127.48,126.32C116.78,125.94,105.18,116.42,93.45,100.22C81.71,84.02,69.83,61.15,57.96,38.27z"/>
	<path
		fill="#FFFFFF"
		stroke="#000000"
		fill-opacity="0.000"
		stroke-opacity="1.000"
		fill-rule="nonzero"
		stroke-width="3.5700002"
		stroke-linejoin="miter"
		stroke-linecap="round"
		d="M127.49,126.32C127.39,158.23,127.29,190.15,127.49,211.24C127.70,232.34,128.23,242.61,124.70,255.17C121.17,267.73,113.60,282.57,96.75,290.31C79.90,298.05,53.77,298.70,35.25,290.31C16.72,281.92,5.80,264.48,4.50,249.31C3.21,234.14,11.54,221.23,19.88,208.31M235.12,208.91C243.46,221.82,251.79,234.73,250.50,249.90C249.20,265.08,238.28,282.51,219.75,290.90C201.23,299.29,175.10,298.64,158.25,290.90C141.40,283.16,133.83,268.32,130.30,255.76C126.77,243.20,127.30,232.93,127.51,211.83C127.71,190.74,127.61,158.82,127.51,126.91"/>
	<path
		fill="#FFFFFF"
		stroke="#000000"
		fill-opacity="0.000"
		stroke-opacity="1.000"
		fill-rule="nonzero"
		stroke-width="3.5700002"
		stroke-linejoin="miter"
		stroke-linecap="round"
		d="M188.70,297.50C173.62,362.06,81.37,362.06,66.30,297.50"/>
</svg>