<?xml version="1.0" encoding="utf-8"?>
<svg
	version="1.1"
	xmlns="http://www.w3.org/2000/svg"
	xmlns:xlink="http://www.w3.org/1999/xlink"
	x="0%" y="0%"
	width="100%" height="100%"
	viewBox="0 0 750.0 475.0"
	enable-background="new 0 0 750.0 475.0"
	xml:space="preserve">
	<path
		fill="#FFFFFF"
		stroke="#000000"
		fill-opacity="0.000"
		stroke-opacity="1.000"
		fill-rule="nonzero"
		stroke-width="6.6499996"
		stroke-linejoin="round"
		stroke-linecap="round"
		d="M118.59,231.22Q166.78,170.96,290.83,171.40M120.59,352.62Q118.18,341.77,88.46,331.15M112.00,333.72Q127.21,339.26,130.83,348.84M109.92,353.85Q104.08,342.44,71.02,334.27M188.22,346.70Q187.42,332.21,157.65,313.57M176.71,346.57Q172.37,330.79,138.66,314.79M401.19,199.11Q401.19,151.60,388.84,119.92M451.11,168.98C401.19,151.60,456.77,56.57,364.14,9.06M466.62,171.53Q590.67,171.10,638.86,231.36M252.42,345.15Q253.80,326.73,224.28,300.04M249.87,311.66Q264.94,325.49,265.40,342.24M239.91,343.78Q237.64,323.36,203.42,299.61M333.78,73.96Q314.23,97.71,308.56,222.87M629.44,357.37Q631.85,346.52,661.58,335.90M638.04,338.47Q622.83,344.01,619.21,353.59M640.12,358.60Q645.95,347.19,679.02,339.02M561.82,351.45Q562.61,336.96,592.39,318.32M573.33,351.32Q577.66,335.54,611.38,319.54M497.62,349.90Q496.24,331.48,525.76,304.79M500.17,316.41Q485.10,330.24,484.64,346.99M510.12,348.53Q512.40,328.11,546.62,304.36"/>
	<path
		fill="#FFFFFF"
		stroke="#000000"
		fill-opacity="0.000"
		stroke-opacity="1.000"
		fill-rule="nonzero"
		stroke-width="6.6499996"
		stroke-linejoin="round"
		stroke-linecap="round"
		d="M345.61,175.36Q345.61,80.33,364.14,32.81"/>
	<path
		fill="#FFFFFF"
		stroke="#000000"
		fill-opacity="0.000"
		stroke-opacity="1.000"
		fill-rule="nonzero"
		stroke-width="7.9824834"
		stroke-linejoin="round"
		stroke-linecap="round"
		d="M161.20,381.74C193.44,381.94,225.69,382.13,244.35,389.38C263.02,396.63,268.11,410.94,268.11,425.02C268.11,439.10,263.02,452.95,244.35,460.65C225.69,468.35,193.44,469.89,161.20,469.89C128.96,469.89,96.72,468.35,78.05,460.65C59.38,452.95,54.29,439.10,54.29,425.02C54.29,410.94,59.38,396.63,78.05,389.38C96.72,382.13,128.96,381.94,161.20,381.74z"/>
	<path
		fill="#461D00"
		stroke="#000000"
		fill-opacity="1.000"
		stroke-opacity="1.000"
		fill-rule="nonzero"
		stroke-width="5.7000003"
		stroke-linejoin="round"
		stroke-linecap="round"
		d="M161.20,383.44C184.16,383.44,202.78,402.05,202.78,425.02C202.78,447.98,184.16,466.59,161.20,466.59C138.24,466.59,119.63,447.98,119.63,425.02C119.63,402.05,138.24,383.44,161.20,383.44z"/>
	<path
		fill="#FFFFFF"
		stroke="#000000"
		fill-opacity="0.000"
		stroke-opacity="1.000"
		fill-rule="nonzero"
		stroke-width="6.65"
		stroke-linejoin="round"
		stroke-linecap="round"
		d="M588.84,381.74C556.59,381.94,524.35,382.13,505.68,389.38C487.02,396.63,481.93,410.94,481.93,425.02C481.93,439.10,487.02,452.95,505.68,460.65C524.35,468.35,556.59,469.89,588.84,469.89C621.08,469.89,653.32,468.35,671.99,460.65C690.65,452.95,695.74,439.10,695.74,425.02C695.74,410.94,690.65,396.63,671.99,389.38C653.32,382.13,621.08,381.94,588.84,381.74z"/>
	<path
		fill="#461D00"
		stroke="#000000"
		fill-opacity="1.000"
		stroke-opacity="1.000"
		fill-rule="nonzero"
		stroke-width="5.7000003"
		stroke-linejoin="round"
		stroke-linecap="round"
		d="M588.84,383.44C611.80,383.44,630.41,402.05,630.41,425.02C630.41,447.98,611.80,466.59,588.84,466.59C565.87,466.59,547.26,447.98,547.26,425.02C547.26,402.05,565.87,383.44,588.84,383.44z"/>
	<path
		fill="#000000"
		stroke="#000000"
		fill-opacity="1.000"
		stroke-opacity="1.000"
		fill-rule="nonzero"
		stroke-width="6.842128"
		stroke-linejoin="round"
		stroke-linecap="round"
		d="M161.20,410.55C169.64,410.55,176.47,417.38,176.47,425.82C176.47,434.25,169.64,441.09,161.20,441.09C152.77,441.09,145.93,434.25,145.93,425.82C145.93,417.38,152.77,410.55,161.20,410.55zM588.84,410.55C580.40,410.55,573.56,417.38,573.56,425.82C573.56,434.25,580.40,441.09,588.84,441.09C597.27,441.09,604.11,434.25,604.11,425.82C604.11,417.38,597.27,410.55,588.84,410.55z"/>
	<path
		fill="#000000"
		stroke="#000000"
		fill-opacity="0.000"
		stroke-opacity="1.000"
		fill-rule="nonzero"
		stroke-width="7.4132934"
		stroke-linejoin="round"
		stroke-linecap="round"
		d="M188.21,304.75Q221.48,319.99,223.75,340.42"/>
	<path
		fill="#000000"
		stroke="#000000"
		fill-opacity="0.000"
		stroke-opacity="1.000"
		fill-rule="nonzero"
		stroke-width="7.4132934"
		stroke-linejoin="round"
		stroke-linecap="round"
		d="M174.23,306.80Q205.88,321.73,210.91,338.50M200.36,343.02Q190.21,322.74,162.59,311.05"/>
	<path
		fill="#000000"
		stroke="#000000"
		fill-opacity="0.000"
		stroke-opacity="1.000"
		fill-rule="nonzero"
		stroke-width="6.294951"
		stroke-linejoin="round"
		stroke-linecap="round"
		d="M125.42,319.94Q157.32,329.37,161.66,345.15"/>
	<path
		fill="#000000"
		stroke="#000000"
		fill-opacity="0.000"
		stroke-opacity="1.000"
		fill-rule="nonzero"
		stroke-width="6.294951"
		stroke-linejoin="round"
		stroke-linecap="round"
		d="M112.95,322.59Q143.36,331.89,149.79,344.62M140.71,348.93Q129.24,333.85,102.87,326.78"/>
	<path
		fill="#000000"
		stroke="#000000"
		fill-opacity="0.000"
		stroke-opacity="1.000"
		fill-rule="nonzero"
		stroke-width="5.3806634"
		stroke-linejoin="round"
		stroke-linecap="round"
		d="M59.35,339.70Q89.98,343.11,95.82,354.52"/>
	<path
		fill="#000000"
		stroke="#000000"
		fill-opacity="0.000"
		stroke-opacity="1.000"
		fill-rule="nonzero"
		stroke-width="5.3806634"
		stroke-linejoin="round"
		stroke-linecap="round"
		d="M48.11,343.14Q77.34,346.64,84.76,355.50M76.86,359.81Q64.49,349.75,39.26,347.47"/>
	<path
		fill="#000000"
		stroke="#000000"
		fill-opacity="0.000"
		stroke-opacity="1.000"
		fill-rule="nonzero"
		stroke-width="4.568957"
		stroke-linejoin="round"
		stroke-linecap="round"
		d="M22.87,352.12Q50.44,355.26,54.98,364.36"/>
	<path
		fill="#000000"
		stroke="#000000"
		fill-opacity="0.000"
		stroke-opacity="1.000"
		fill-rule="nonzero"
		stroke-width="4.568957"
		stroke-linejoin="round"
		stroke-linecap="round"
		d="M10.02,354.53Q38.50,358.32,41.81,366.35M33.57,368.46Q28.47,360.74,4.62,359.26"/>
	<path
		fill="#000000"
		stroke="#000000"
		fill-opacity="0.000"
		stroke-opacity="1.000"
		fill-rule="nonzero"
		stroke-width="7.4132934"
		stroke-linejoin="round"
		stroke-linecap="round"
		d="M561.83,309.50Q528.56,324.74,526.29,345.17"/>
	<path
		fill="#000000"
		stroke="#000000"
		fill-opacity="0.000"
		stroke-opacity="1.000"
		fill-rule="nonzero"
		stroke-width="7.4132934"
		stroke-linejoin="round"
		stroke-linecap="round"
		d="M575.81,311.55Q544.15,326.48,539.13,343.25M549.68,347.77Q559.83,327.49,587.44,315.80"/>
	<path
		fill="#000000"
		stroke="#000000"
		fill-opacity="0.000"
		stroke-opacity="1.000"
		fill-rule="nonzero"
		stroke-width="6.294951"
		stroke-linejoin="round"
		stroke-linecap="round"
		d="M624.62,324.69Q592.71,334.12,588.38,349.90"/>
	<path
		fill="#000000"
		stroke="#000000"
		fill-opacity="0.000"
		stroke-opacity="1.000"
		fill-rule="nonzero"
		stroke-width="6.294951"
		stroke-linejoin="round"
		stroke-linecap="round"
		d="M637.08,327.34Q606.68,336.64,600.25,349.37M609.33,353.68Q620.80,338.60,647.17,331.53"/>
	<path
		fill="#000000"
		stroke="#000000"
		fill-opacity="0.000"
		stroke-opacity="1.000"
		fill-rule="nonzero"
		stroke-width="5.3806634"
		stroke-linejoin="round"
		stroke-linecap="round"
		d="M690.69,344.45Q660.05,347.86,654.22,359.27"/>
	<path
		fill="#000000"
		stroke="#000000"
		fill-opacity="0.000"
		stroke-opacity="1.000"
		fill-rule="nonzero"
		stroke-width="5.3806634"
		stroke-linejoin="round"
		stroke-linecap="round"
		d="M701.91,349.57Q672.68,353.07,665.25,361.93M673.16,366.24Q685.52,356.18,710.76,353.91"/>
	<path
		fill="#000000"
		stroke="#000000"
		fill-opacity="0.000"
		stroke-opacity="1.000"
		fill-rule="nonzero"
		stroke-width="4.568957"
		stroke-linejoin="round"
		stroke-linecap="round"
		d="M727.13,356.87Q699.56,360.01,695.02,369.11"/>
	<path
		fill="#000000"
		stroke="#000000"
		fill-opacity="0.000"
		stroke-opacity="1.000"
		fill-rule="nonzero"
		stroke-width="4.568957"
		stroke-linejoin="round"
		stroke-linecap="round"
		d="M739.98,359.27Q711.50,363.07,708.19,371.10M716.43,373.21Q721.53,365.49,745.38,364.01"/>
</svg>